<?xml version="1.0" encoding="us-ascii" standalone="no"?><svg xmlns="http://www.w3.org/2000/svg" xmlns:xlink="http://www.w3.org/1999/xlink" contentStyleType="text/css" height="518px" preserveAspectRatio="none" style="width:5160px;height:518px;background:#FFFFFF;" version="1.1" viewBox="0 0 5160 518" width="5160px" zoomAndPan="magnify"><defs/><g><ellipse cx="2583.5" cy="20" fill="#222222" rx="10" ry="10" style="stroke:#222222;stroke-width:1.0;"/><rect fill="#F1F1F1" height="34.1328" rx="12.5" ry="12.5" style="stroke:#181818;stroke-width:0.5;" width="80" x="2543.5" y="50"/><text fill="#000000" font-family="sans-serif" font-size="12" lengthAdjust="spacing" textLength="60" x="2553.5" y="71.6016">&#28450;&#23383;&#12398;&#20998;&#39006;</text><polygon fill="#F1F1F1" points="238,104.1328,397,104.1328,409,117.0879,397,130.043,238,130.043,226,117.0879,238,104.1328" style="stroke:#181818;stroke-width:0.5;"/><text fill="#000000" font-family="sans-serif" font-size="11" lengthAdjust="spacing" textLength="18" x="321.5" y="140.6777">yes</text><text fill="#000000" font-family="sans-serif" font-size="11" lengthAdjust="spacing" textLength="159" x="238" y="114.7676">&#20013;&#22269;&#12398;&#21476;&#23383;&#12420;&#20439;&#23383;&#12392;&#21028;&#26029;&#12391;&#12365;&#12427;?</text><text fill="#000000" font-family="sans-serif" font-size="11" lengthAdjust="spacing" textLength="88" x="238" y="127.7227">(GKX:&#24247;&#29081;&#23383;&#20856;&#31561;)</text><polygon fill="#F1F1F1" points="249,162.998,386,162.998,398,174.998,386,186.998,249,186.998,237,174.998,249,162.998" style="stroke:#181818;stroke-width:0.5;"/><text fill="#000000" font-family="sans-serif" font-size="11" lengthAdjust="spacing" textLength="137" x="249" y="179.1553">&#20013;&#22269;&#12398;&#28450;&#23383;&#12398;&#35501;&#12415;&#26041;&#12364;&#12354;&#12427;?</text><text fill="#000000" font-family="sans-serif" font-size="11" lengthAdjust="spacing" textLength="18" x="219" y="172.6777">yes</text><text fill="#000000" font-family="sans-serif" font-size="11" lengthAdjust="spacing" textLength="14" x="398" y="172.6777">no</text><rect fill="#F1F1F1" height="34.1328" rx="12.5" ry="12.5" style="stroke:#181818;stroke-width:0.5;" width="176" x="67.5" y="196.998"/><text fill="#000000" font-family="sans-serif" font-size="12" lengthAdjust="spacing" textLength="156" x="77.5" y="218.5996">&#9312;&#20013;&#22269;&#12398;&#28450;&#23383;&#12398;&#35501;&#12415;&#26041;&#12395;&#24467;&#12358;</text><rect fill="#F1F1F1" height="48.2656" rx="12.5" ry="12.5" style="stroke:#181818;stroke-width:0.5;" width="289" x="11" y="266.1309"/><text fill="#000000" font-family="sans-serif" font-size="12" lengthAdjust="spacing" textLength="201" x="21" y="287.7324">&#20363;: &#12300;&#20451;&#12301;&#12399;&#20013;&#22269;&#12398;&#21476;&#23383;&#12391;, y&#468;&#12392;&#35501;&#12416;,</text><text fill="#000000" font-family="sans-serif" font-size="12" lengthAdjust="spacing" textLength="269" x="21" y="301.8652">&#12300;&#25662;&#12301;&#12399;&#20013;&#22269;&#12398;&#28450;&#23383;&#12300;&#27048;&#12301;&#12398;&#30064;&#20307;&#23383;&#12391;, zh&#224;&#12392;&#35501;&#12416;</text><rect fill="#F1F1F1" height="34.1328" rx="12.5" ry="12.5" style="stroke:#181818;stroke-width:0.5;" width="308" x="325.5" y="196.998"/><text fill="#000000" font-family="sans-serif" font-size="12" lengthAdjust="spacing" textLength="288" x="335.5" y="218.5996">&#9313;&#24418;&#22768;&#25991;&#23383;&#12420;&#20250;&#24847;&#25991;&#23383;&#12392;&#12415;&#12394;&#12379;&#12427;&#37096;&#20998;&#12398;&#35501;&#12415;&#26041;&#12434;&#25505;&#29992;</text><rect fill="#F1F1F1" height="34.1328" rx="12.5" ry="12.5" style="stroke:#181818;stroke-width:0.5;" width="319" x="320" y="266.1309"/><text fill="#000000" font-family="sans-serif" font-size="12" lengthAdjust="spacing" textLength="299" x="330" y="287.7324">&#20363;: &#12300;&#31870;&#12301;&#12399;&#24418;&#22768;&#25991;&#23383;&#12392;&#12375;&#12390;&#25201;&#12356;, r&#232;n&#65288;&#20995;&#65289;&#12398;&#38899;&#12434;&#21462;&#12427;</text><polygon fill="#F1F1F1" points="317.5,320.3965,329.5,332.3965,317.5,344.3965,305.5,332.3965,317.5,320.3965" style="stroke:#181818;stroke-width:0.5;"/><polygon fill="#F1F1F1" points="962.25,104.1328,1143.25,104.1328,1155.25,117.0879,1143.25,130.043,962.25,130.043,950.25,117.0879,962.25,104.1328" style="stroke:#181818;stroke-width:0.5;"/><text fill="#000000" font-family="sans-serif" font-size="11" lengthAdjust="spacing" textLength="18" x="1056.75" y="140.6777">yes</text><text fill="#000000" font-family="sans-serif" font-size="11" lengthAdjust="spacing" textLength="181" x="962.25" y="114.7676">&#26085;&#20013;&#12391;&#24847;&#21619;&#12399;&#36949;&#12358;&#12364;&#23383;&#24418;&#12364;&#21516;&#12376;&#28450;&#23383;?</text><text fill="#000000" font-family="sans-serif" font-size="11" lengthAdjust="spacing" textLength="173" x="962.25" y="127.7227">(&#23383;&#24418;&#12398;&#25104;&#12426;&#31435;&#12385;&#12364;&#21516;&#12376;&#12418;&#12398;&#12418;&#21547;&#12416;)</text><polygon fill="#F1F1F1" points="984.25,162.998,1121.25,162.998,1133.25,174.998,1121.25,186.998,984.25,186.998,972.25,174.998,984.25,162.998" style="stroke:#181818;stroke-width:0.5;"/><text fill="#000000" font-family="sans-serif" font-size="11" lengthAdjust="spacing" textLength="137" x="984.25" y="179.1553">&#20013;&#22269;&#12398;&#28450;&#23383;&#12395;&#35501;&#12415;&#26041;&#12364;&#12354;&#12427;?</text><text fill="#000000" font-family="sans-serif" font-size="11" lengthAdjust="spacing" textLength="18" x="954.25" y="172.6777">yes</text><text fill="#000000" font-family="sans-serif" font-size="11" lengthAdjust="spacing" textLength="14" x="1133.25" y="172.6777">no</text><rect fill="#F1F1F1" height="34.1328" rx="12.5" ry="12.5" style="stroke:#181818;stroke-width:0.5;" width="272" x="717" y="196.998"/><text fill="#000000" font-family="sans-serif" font-size="12" lengthAdjust="spacing" textLength="252" x="727" y="218.5996">&#9314;&#21516;&#12376;&#23383;&#24418;&#12398;&#20013;&#22269;&#12398;&#28450;&#23383;&#12398;&#35501;&#12415;&#12434;&#12381;&#12398;&#12414;&#12414;&#25505;&#29992;</text><rect fill="#F1F1F1" height="48.2656" rx="12.5" ry="12.5" style="stroke:#181818;stroke-width:0.5;" width="408" x="649" y="266.1309"/><text fill="#000000" font-family="sans-serif" font-size="12" lengthAdjust="spacing" textLength="388" x="659" y="287.7324">&#20363;: &#12300;&#21250;&#12301;&#12399;&#20013;&#22269;&#12398;&#28450;&#23383;&#12300;&#21248;&#12301;&#12398;&#21476;&#12356;&#23383;&#24418;&#12392;&#21516;&#12376;&#12394;&#12398;&#12391;, y&#250;n&#12398;&#38899;&#12434;&#21462;&#12427;,</text><text fill="#000000" font-family="sans-serif" font-size="12" lengthAdjust="spacing" textLength="376" x="663" y="301.8652">&#12288; &#12300;&#27079;&#12301;&#12399;&#20013;&#22269;&#12398;&#28450;&#23383;&#12300;&#27097;&#12301;&#12398;&#26087;&#23383;&#20307;&#12392;&#21516;&#12376;&#12394;&#12398;&#12391;, zh&#275;n&#12398;&#38899;&#12434;&#21462;&#12427;</text><rect fill="#F1F1F1" height="34.1328" rx="12.5" ry="12.5" style="stroke:#181818;stroke-width:0.5;" width="308" x="1098.5" y="196.998"/><text fill="#000000" font-family="sans-serif" font-size="12" lengthAdjust="spacing" textLength="288" x="1108.5" y="218.5996">&#9315;&#24418;&#22768;&#25991;&#23383;&#12420;&#20250;&#24847;&#25991;&#23383;&#12392;&#12415;&#12394;&#12379;&#12427;&#37096;&#20998;&#12398;&#35501;&#12415;&#26041;&#12434;&#25505;&#29992;</text><rect fill="#F1F1F1" height="34.1328" rx="12.5" ry="12.5" style="stroke:#181818;stroke-width:0.5;" width="351" x="1077" y="266.1309"/><text fill="#000000" font-family="sans-serif" font-size="12" lengthAdjust="spacing" textLength="331" x="1087" y="287.7324">&#20363;: &#12300;&#26467;&#12301;&#12399;&#24418;&#22768;&#25991;&#23383;&#12392;&#12415;&#12394;&#12379;&#12427;&#12398;&#12391;, sh&#257;n&#65288;&#23665;&#65289;&#12398;&#38899;&#12434;&#21462;&#12427;</text><polygon fill="#F1F1F1" points="1052.75,320.3965,1064.75,332.3965,1052.75,344.3965,1040.75,332.3965,1052.75,320.3965" style="stroke:#181818;stroke-width:0.5;"/><polygon fill="#F1F1F1" points="1547.75,97.6553,1887.75,97.6553,1899.75,117.0879,1887.75,136.5205,1547.75,136.5205,1535.75,117.0879,1547.75,97.6553" style="stroke:#181818;stroke-width:0.5;"/><text fill="#000000" font-family="sans-serif" font-size="11" lengthAdjust="spacing" textLength="18" x="1721.75" y="147.1553">yes</text><text fill="#000000" font-family="sans-serif" font-size="11" lengthAdjust="spacing" textLength="71" x="1547.75" y="108.29">&#26085;&#26412;&#12398;&#30064;&#20307;&#23383;?</text><text fill="#000000" font-family="sans-serif" font-size="11" lengthAdjust="spacing" textLength="209" x="1547.75" y="121.2451">(JK:&#20170;&#26132;&#25991;&#23383;&#37857;,JMJ:&#25991;&#23383;&#24773;&#22577;&#22522;&#30436;&#25972;&#20633;&#20107;&#26989;/</text><text fill="#000000" font-family="sans-serif" font-size="11" lengthAdjust="spacing" textLength="340" x="1547.75" y="134.2002">&#30064;&#39636;&#23383;&#23383;&#20856;/&#27721;&#23383;&#28023;&#12395;&#30064;&#20307;&#23383;&#12392;&#36617;&#12387;&#12390;&#12356;&#12427;&#12364;&#20013;&#22269;&#20596;&#12395;&#35443;&#32048;&#12364;&#28961;&#12356;&#22580;&#21512;)</text><polygon fill="#F1F1F1" points="1671.25,169.4756,1764.25,169.4756,1776.25,181.4756,1764.25,193.4756,1671.25,193.4756,1659.25,181.4756,1671.25,169.4756" style="stroke:#181818;stroke-width:0.5;"/><text fill="#000000" font-family="sans-serif" font-size="11" lengthAdjust="spacing" textLength="93" x="1671.25" y="185.6328">&#35211;&#12383;&#30446;&#12364;&#20284;&#12390;&#12356;&#12427;?</text><text fill="#000000" font-family="sans-serif" font-size="11" lengthAdjust="spacing" textLength="18" x="1641.25" y="179.1553">yes</text><text fill="#000000" font-family="sans-serif" font-size="11" lengthAdjust="spacing" textLength="14" x="1776.25" y="179.1553">no</text><rect fill="#F1F1F1" height="34.1328" rx="12.5" ry="12.5" style="stroke:#181818;stroke-width:0.5;" width="176" x="1478.5" y="203.4756"/><text fill="#000000" font-family="sans-serif" font-size="12" lengthAdjust="spacing" textLength="156" x="1488.5" y="225.0771">&#9316;&#23383;&#24418;&#12364;&#39006;&#20284;&#12377;&#12427;&#25991;&#23383;&#12434;&#25505;&#29992;</text><rect fill="#F1F1F1" height="34.1328" rx="12.5" ry="12.5" style="stroke:#181818;stroke-width:0.5;" width="257" x="1438" y="272.6084"/><text fill="#000000" font-family="sans-serif" font-size="12" lengthAdjust="spacing" textLength="237" x="1448" y="294.21">&#20363;&#65306;&#12300;&#39641;&#12301;&#65288;&#12300;&#39640;&#12301;&#12398;&#30064;&#20307;&#23383;&#65289;&#12399;g&#257;o&#12392;&#35501;&#12416;</text><rect fill="#F1F1F1" height="34.1328" rx="12.5" ry="12.5" style="stroke:#181818;stroke-width:0.5;" width="308" x="1715" y="203.4756"/><text fill="#000000" font-family="sans-serif" font-size="12" lengthAdjust="spacing" textLength="288" x="1725" y="225.0771">&#9317;&#24418;&#22768;&#25991;&#23383;&#12420;&#20250;&#24847;&#25991;&#23383;&#12392;&#12415;&#12394;&#12379;&#12427;&#37096;&#20998;&#12398;&#35501;&#12415;&#26041;&#12434;&#25505;&#29992;</text><rect fill="#F1F1F1" height="48.2656" rx="12.5" ry="12.5" style="stroke:#181818;stroke-width:0.5;" width="222" x="1758" y="272.6084"/><text fill="#000000" font-family="sans-serif" font-size="12" lengthAdjust="spacing" textLength="195" x="1768" y="294.21">&#20363;&#65306;&#12300;&#26943;&#12301;&#65288;&#12388;&#12400;&#12365;&#65289;&#12399;ch&#363;n&#12392;&#35501;&#12416;</text><text fill="#000000" font-family="sans-serif" font-size="12" lengthAdjust="spacing" textLength="202" x="1768" y="308.3428">&#12288;&#12288;&#12300;&#22547;&#12301;&#12399;&#12300;&#23736;&#12301;&#12391;, &#224;n&#12398;&#38899;&#12434;&#21462;&#12427;</text><polygon fill="#F1F1F1" points="1717.75,326.874,1729.75,338.874,1717.75,350.874,1705.75,338.874,1717.75,326.874" style="stroke:#181818;stroke-width:0.5;"/><polygon fill="#F1F1F1" points="2558.5,105.0879,2646.5,105.0879,2658.5,117.0879,2646.5,129.0879,2558.5,129.0879,2546.5,117.0879,2558.5,105.0879" style="stroke:#181818;stroke-width:0.5;"/><text fill="#000000" font-family="sans-serif" font-size="11" lengthAdjust="spacing" textLength="18" x="2606.5" y="139.7227">yes</text><text fill="#000000" font-family="sans-serif" font-size="11" lengthAdjust="spacing" textLength="88" x="2558.5" y="121.2451">&#26085;&#26412;&#12398;&#30053;&#23383;/&#20439;&#23383;?</text><polygon fill="#F1F1F1" points="2468,162.043,2737,162.043,2749,174.043,2737,186.043,2468,186.043,2456,174.043,2468,162.043" style="stroke:#181818;stroke-width:0.5;"/><text fill="#000000" font-family="sans-serif" font-size="11" lengthAdjust="spacing" textLength="269" x="2468" y="178.2002">&#26085;&#26412;&#12398;&#31777;&#20307;&#23383;&#12398;&#32321;&#20307;&#23383;&#12392;&#20013;&#22269;&#12398;&#31777;&#20307;&#23383;&#12398;&#32321;&#20307;&#23383;&#12364;&#21516;&#12376;?</text><text fill="#000000" font-family="sans-serif" font-size="11" lengthAdjust="spacing" textLength="18" x="2438" y="171.7227">yes</text><text fill="#000000" font-family="sans-serif" font-size="11" lengthAdjust="spacing" textLength="14" x="2749" y="171.7227">no</text><rect fill="#F1F1F1" height="34.1328" rx="12.5" ry="12.5" style="stroke:#181818;stroke-width:0.5;" width="224" x="2190.5" y="196.043"/><text fill="#000000" font-family="sans-serif" font-size="12" lengthAdjust="spacing" textLength="204" x="2200.5" y="217.6445">&#9318;&#23550;&#24540;&#12377;&#12427;&#20013;&#22269;&#12398;&#31777;&#20307;&#23383;&#12398;&#35501;&#12415;&#12434;&#25505;&#29992;</text><rect fill="#F1F1F1" height="48.2656" rx="12.5" ry="12.5" style="stroke:#181818;stroke-width:0.5;" width="539" x="2033" y="265.1758"/><text fill="#000000" font-family="sans-serif" font-size="12" lengthAdjust="spacing" textLength="519" x="2043" y="286.7773">&#20363;: &#12300;&#24195;&#12301;&#65288;&#26085;&#65289;&#12392;&#12300;&#24191;&#12301;&#65288;&#20013;&#65289;&#12398;&#32321;&#20307;&#23383;&#12399;&#12300;&#24291;&#12301;&#12391;&#21516;&#12376;&#12394;&#12398;&#12391;, &#12300;&#24191;&#65288;gu&#462;ng&#65289;&#12301;&#12398;&#35501;&#12415;&#12434;&#21462;&#12427;</text><text fill="#000000" font-family="sans-serif" font-size="12" lengthAdjust="spacing" textLength="511" x="2043" y="300.9102">&#12288;&#12288;&#12300;&#26716;&#12301;&#65288;&#26085;&#65289;&#12392;&#12300;&#27185;&#12301;&#65288;&#20013;&#65289;&#12398;&#32321;&#20307;&#23383;&#12399;&#12300;&#27387;&#12301;&#12391;&#21516;&#12376;&#12394;&#12398;&#12391;, &#12300;&#27185;&#65288;y&#299;ng&#65289;&#12301;&#12398;&#35501;&#12415;&#12434;&#21462;&#12427;</text><rect fill="#F1F1F1" height="34.1328" rx="12.5" ry="12.5" style="stroke:#181818;stroke-width:0.5;" width="224" x="2790.5" y="196.043"/><text fill="#000000" font-family="sans-serif" font-size="12" lengthAdjust="spacing" textLength="204" x="2800.5" y="217.6445">&#9319;&#23550;&#24540;&#12377;&#12427;&#26085;&#26412;&#12398;&#32321;&#20307;&#23383;&#12398;&#35501;&#12415;&#12434;&#25505;&#29992;</text><rect fill="#F1F1F1" height="48.2656" rx="12.5" ry="12.5" style="stroke:#181818;stroke-width:0.5;" width="621" x="2592" y="265.1758"/><text fill="#000000" font-family="sans-serif" font-size="12" lengthAdjust="spacing" textLength="591" x="2602" y="286.7773">&#20363;: &#12300;&#25282;&#12301;&#12399;&#26085;&#26412;&#12391;&#12300;&#25173;&#12301;&#12395;&#31777;&#30053;&#21270;&#12373;&#12428;&#12427;&#12364;&#20013;&#22269;&#12391;&#12399;&#31777;&#30053;&#21270;&#12373;&#12428;&#12394;&#12356;&#12398;&#12391;, &#12300;&#25173;&#12301;&#12399;&#12300;&#25282;&#65288;f&#250;&#65289;&#12301;&#12398;&#35501;&#12415;&#12434;&#21462;&#12427;</text><text fill="#000000" font-family="sans-serif" font-size="12" lengthAdjust="spacing" textLength="601" x="2602" y="300.9102">&#12288;&#12288;&#12300;&#37257;&#12301;&#12399;&#26085;&#26412;&#12391;&#12300;&#37204;&#12301;&#12395;&#31777;&#30053;&#21270;&#12373;&#12428;&#12427;&#12364;&#20013;&#22269;&#12391;&#12399;&#31777;&#30053;&#21270;&#12373;&#12428;&#12394;&#12356;&#12398;&#12391;, &#12300;&#37204;&#12301;&#12399;&#12300;&#37257;&#65288;zu&#236;&#65289;&#12301;&#12398;&#35501;&#12415;&#12434;&#21462;&#12427;</text><polygon fill="#F1F1F1" points="2602.5,319.4414,2614.5,331.4414,2602.5,343.4414,2590.5,331.4414,2602.5,319.4414" style="stroke:#181818;stroke-width:0.5;"/><polygon fill="#F1F1F1" points="3368,105.0879,3428,105.0879,3440,117.0879,3428,129.0879,3368,129.0879,3356,117.0879,3368,105.0879" style="stroke:#181818;stroke-width:0.5;"/><text fill="#000000" font-family="sans-serif" font-size="11" lengthAdjust="spacing" textLength="18" x="3402" y="139.7227">yes</text><text fill="#000000" font-family="sans-serif" font-size="11" lengthAdjust="spacing" textLength="60" x="3368" y="121.2451">&#26085;&#26412;&#12398;&#21512;&#23383;?</text><rect fill="#F1F1F1" height="48.2656" rx="12.5" ry="12.5" style="stroke:#181818;stroke-width:0.5;" width="350" x="3223" y="162.043"/><text fill="#000000" font-family="sans-serif" font-size="12" lengthAdjust="spacing" textLength="212" x="3233" y="183.6445">&#20363;: &#9320;&#12300;&#140093;&#12301;&#12399;&#28037;&#27075;&#12398;&#25340;&#38899;&#12398;&#12300;ni&#232;p&#225;n&#12301;</text><text fill="#000000" font-family="sans-serif" font-size="12" lengthAdjust="spacing" textLength="330" x="3233" y="197.7773">&#12288;&#12288; &#12300;&#200812;&#12301;&#12399;&#19002;&#40856;&#65288;&#12383;&#12356;&#12392;&#65289;&#12434;&#25340;&#38899;&#12391;&#35501;&#12415;&#12300;ddu&#236;d&#225;&#12301;&#12434;&#21462;&#12427;</text><polygon fill="#F1F1F1" points="4042.75,105.0879,4146.75,105.0879,4158.75,117.0879,4146.75,129.0879,4042.75,129.0879,4030.75,117.0879,4042.75,105.0879" style="stroke:#181818;stroke-width:0.5;"/><text fill="#000000" font-family="sans-serif" font-size="11" lengthAdjust="spacing" textLength="18" x="4098.75" y="139.7227">yes</text><text fill="#000000" font-family="sans-serif" font-size="11" lengthAdjust="spacing" textLength="104" x="4042.75" y="121.2451">&#26085;&#26412;&#12391;&#20316;&#12425;&#12428;&#12383;&#28450;&#23383;?</text><text fill="#000000" font-family="sans-serif" font-size="11" lengthAdjust="spacing" textLength="14" x="4158.75" y="114.7676">no</text><polygon fill="#F1F1F1" points="4015.25,162.043,4174.25,162.043,4186.25,174.043,4174.25,186.043,4015.25,186.043,4003.25,174.043,4015.25,162.043" style="stroke:#181818;stroke-width:0.5;"/><text fill="#000000" font-family="sans-serif" font-size="11" lengthAdjust="spacing" textLength="159" x="4015.25" y="178.2002">&#24418;&#22768;&#25991;&#23383;&#12420;&#20250;&#24847;&#25991;&#23383;&#12392;&#12415;&#12394;&#12379;&#12427;?</text><text fill="#000000" font-family="sans-serif" font-size="11" lengthAdjust="spacing" textLength="18" x="3985.25" y="171.7227">yes</text><text fill="#000000" font-family="sans-serif" font-size="11" lengthAdjust="spacing" textLength="14" x="4186.25" y="171.7227">no</text><rect fill="#F1F1F1" height="34.1328" rx="12.5" ry="12.5" style="stroke:#181818;stroke-width:0.5;" width="308" x="3583" y="196.043"/><text fill="#000000" font-family="sans-serif" font-size="12" lengthAdjust="spacing" textLength="288" x="3593" y="217.6445">&#9321;&#24418;&#22768;&#25991;&#23383;&#12420;&#20250;&#24847;&#25991;&#23383;&#12392;&#12415;&#12394;&#12379;&#12427;&#37096;&#20998;&#12398;&#35501;&#12415;&#26041;&#12434;&#25505;&#29992;</text><rect fill="#F1F1F1" height="76.5313" rx="12.5" ry="12.5" style="stroke:#181818;stroke-width:0.5;" width="213" x="3630.5" y="265.1758"/><text fill="#000000" font-family="sans-serif" font-size="12" lengthAdjust="spacing" textLength="189" x="3640.5" y="286.7773">&#20363;: &#12300;&#30033;&#12301;&#12399;ti&#225;n&#65288;&#30000;&#65289;&#12398;&#38899;&#12434;&#21462;&#12427;,</text><text fill="#000000" font-family="sans-serif" font-size="12" lengthAdjust="spacing" textLength="180" x="3640.5" y="300.9102">&#12288; &#12300;&#36795;&#12301;&#12399;sh&#237;&#65288;&#21313;&#65289;&#12398;&#38899;&#12434;&#21462;&#12427;,</text><text fill="#000000" font-family="sans-serif" font-size="12" lengthAdjust="spacing" textLength="176" x="3640.5" y="315.043">&#12288; &#12300;&#36796;&#12301;&#12399;r&#249;&#65288;&#20837;&#65289;&#12398;&#38899;&#12434;&#21462;&#12427;,</text><text fill="#000000" font-family="sans-serif" font-size="12" lengthAdjust="spacing" textLength="181" x="3640.5" y="329.1758">&#12288; &#12300;&#40235;&#12301;&#12399;ti&#225;n&#65288;&#30000;&#65289;&#12398;&#38899;&#12434;&#21462;&#12427;</text><polygon fill="#F1F1F1" points="3973,221.043,4187,221.043,4199,233.043,4187,245.043,3973,245.043,3961,233.043,3973,221.043" style="stroke:#181818;stroke-width:0.5;"/><text fill="#000000" font-family="sans-serif" font-size="11" lengthAdjust="spacing" textLength="18" x="4084" y="255.6777">yes</text><text fill="#000000" font-family="sans-serif" font-size="11" lengthAdjust="spacing" textLength="214" x="3973" y="237.2002">&#20013;&#22269;&#12391;&#19968;&#33324;&#30340;&#12394;&#28450;&#23383;&#12391;&#20284;&#12390;&#12356;&#12427;&#12418;&#12398;&#12364;&#12354;&#12427;?</text><rect fill="#F1F1F1" height="34.1328" rx="12.5" ry="12.5" style="stroke:#181818;stroke-width:0.5;" width="260" x="3950" y="277.998"/><text fill="#000000" font-family="sans-serif" font-size="12" lengthAdjust="spacing" textLength="240" x="3960" y="299.5996">&#9322;&#23383;&#24418;&#12364;&#39006;&#20284;&#12377;&#12427;&#25991;&#23383;&#12420;&#37096;&#39318;&#12398;&#35501;&#12415;&#26041;&#12434;&#25505;&#29992;</text><rect fill="#F1F1F1" height="48.2656" rx="12.5" ry="12.5" style="stroke:#181818;stroke-width:0.5;" width="358" x="3901" y="347.1309"/><text fill="#000000" font-family="sans-serif" font-size="12" lengthAdjust="spacing" textLength="278" x="3911" y="368.7324">&#20363;:&#12300;&#40639;&#12301;&#12399;&#23383;&#24418;&#12364;&#39006;&#20284;&#12377;&#12427;&#12300;&#30952;&#12301;&#12398;&#35501;&#12415;m&#243;&#12434;&#21462;&#12427;,</text><text fill="#000000" font-family="sans-serif" font-size="12" lengthAdjust="spacing" textLength="338" x="3911" y="382.8652">&#12288; &#12300;&#23776;&#12301;&#12398;&#21491;&#20596;&#12398;&#37096;&#20998;&#12399;&#12300;&#21345;&#12301;&#12395;&#39006;&#20284;&#12377;&#12427;&#12383;&#12417;, k&#462;&#12398;&#38899;&#12434;&#21462;&#12427;</text><polygon fill="#F1F1F1" points="4375.5,221.043,4545.5,221.043,4557.5,233.043,4545.5,245.043,4375.5,245.043,4363.5,233.043,4375.5,221.043" style="stroke:#181818;stroke-width:0.5;"/><text fill="#000000" font-family="sans-serif" font-size="11" lengthAdjust="spacing" textLength="18" x="4464.5" y="255.6777">yes</text><text fill="#000000" font-family="sans-serif" font-size="11" lengthAdjust="spacing" textLength="170" x="4375.5" y="237.2002">&#20013;&#22269;&#12391;&#20284;&#12390;&#12356;&#12427;&#24847;&#21619;&#12398;&#28450;&#23383;&#12364;&#12354;&#12427;?</text><rect fill="#F1F1F1" height="34.1328" rx="12.5" ry="12.5" style="stroke:#181818;stroke-width:0.5;" width="224" x="4348.5" y="277.998"/><text fill="#000000" font-family="sans-serif" font-size="12" lengthAdjust="spacing" textLength="204" x="4358.5" y="299.5996">&#9323;&#20284;&#12390;&#12356;&#12427;&#24847;&#21619;&#12398;&#28450;&#23383;&#12398;&#35501;&#12415;&#26041;&#12434;&#25505;&#29992;</text><rect fill="#F1F1F1" height="34.1328" rx="12.5" ry="12.5" style="stroke:#181818;stroke-width:0.5;" width="383" x="4269" y="347.1309"/><text fill="#000000" font-family="sans-serif" font-size="12" lengthAdjust="spacing" textLength="363" x="4279" y="368.7324">&#20363;: &#12300;&#187194;(&#24035;&#31840;&#12418;&#12426;)&#12301;&#12399;&#12300;&#34544;(zh&#233;)&#12301;&#12364;&#24847;&#21619;&#30340;&#12395;&#36817;&#12356;&#12398;&#12391;zh&#233;&#12434;&#21462;&#12427;&#12290;</text><polygon fill="#F1F1F1" points="4750.5,221.043,4865.5,221.043,4877.5,233.043,4865.5,245.043,4750.5,245.043,4738.5,233.043,4750.5,221.043" style="stroke:#181818;stroke-width:0.5;"/><text fill="#000000" font-family="sans-serif" font-size="11" lengthAdjust="spacing" textLength="18" x="4812" y="255.6777">yes</text><text fill="#000000" font-family="sans-serif" font-size="11" lengthAdjust="spacing" textLength="115" x="4750.5" y="237.2002">&#33521;&#35486;&#12434;&#28450;&#23383;&#12395;&#12375;&#12383;&#12418;&#12398;?</text><rect fill="#F1F1F1" height="34.1328" rx="12.5" ry="12.5" style="stroke:#181818;stroke-width:0.5;" width="260" x="4678" y="277.998"/><text fill="#000000" font-family="sans-serif" font-size="12" lengthAdjust="spacing" textLength="240" x="4688" y="299.5996">&#9324;&#23383;&#24418;&#12364;&#39006;&#20284;&#12377;&#12427;&#25991;&#23383;&#12420;&#37096;&#39318;&#12398;&#35501;&#12415;&#26041;&#12434;&#25505;&#29992;</text><rect fill="#F1F1F1" height="34.1328" rx="12.5" ry="12.5" style="stroke:#181818;stroke-width:0.5;" width="292" x="4662" y="347.1309"/><text fill="#000000" font-family="sans-serif" font-size="12" lengthAdjust="spacing" textLength="272" x="4672" y="368.7324">&#20363;: &#12300;&#178295;(&#12504;&#12463;&#12479;&#12540;&#12523;)&#12301;&#12399;&#12289;&#33521;&#35486;&#12398;hectare&#12434;&#21462;&#12427;&#12290;</text><polygon fill="#F1F1F1" points="4094.75,421.3965,4106.75,433.3965,4094.75,445.3965,4082.75,433.3965,4094.75,421.3965" style="stroke:#181818;stroke-width:0.5;"/><rect fill="#F1F1F1" height="34.1328" rx="12.5" ry="12.5" style="stroke:#181818;stroke-width:0.5;" width="116" x="4994" y="306.9595"/><text fill="#000000" font-family="sans-serif" font-size="12" lengthAdjust="spacing" textLength="96" x="5004" y="328.561">&#9325;&#20170;&#22238;&#12399;&#38500;&#22806;&#12377;&#12427;</text><polygon fill="#F1F1F1" points="4994,258.4819,5110,258.4819,5122,270.4819,5110,282.4819,4994,282.4819,4982,270.4819,4994,258.4819" style="stroke:#181818;stroke-width:0.5;"/><text fill="#000000" font-family="sans-serif" font-size="11" lengthAdjust="spacing" textLength="18" x="5056" y="293.1167">yes</text><text fill="#000000" font-family="sans-serif" font-size="11" lengthAdjust="spacing" textLength="116" x="4994" y="274.6392">&#26397;&#39854;&#28450;&#23383;/&#21476;&#22766;&#23383;/&#23383;&#21891;?</text><polygon fill="#F1F1F1" points="5052,365.5698,5064,377.5698,5052,389.5698,5040,377.5698,5052,365.5698" style="stroke:#181818;stroke-width:0.5;"/><ellipse cx="2583.5" cy="496.3965" fill="none" rx="11" ry="11" style="stroke:#222222;stroke-width:1.0;"/><ellipse cx="2583.5" cy="496.3965" fill="#222222" rx="6" ry="6" style="stroke:#222222;stroke-width:1.0;"/><line style="stroke:#181818;stroke-width:1.0;" x1="2583.5" x2="2583.5" y1="30" y2="50"/><polygon fill="#181818" points="2579.5,40,2583.5,50,2587.5,40,2583.5,44" style="stroke:#181818;stroke-width:1.0;"/><line style="stroke:#181818;stroke-width:1.0;" x1="155.5" x2="155.5" y1="231.1309" y2="266.1309"/><polygon fill="#181818" points="151.5,256.1309,155.5,266.1309,159.5,256.1309,155.5,260.1309" style="stroke:#181818;stroke-width:1.0;"/><line style="stroke:#181818;stroke-width:1.0;" x1="479.5" x2="479.5" y1="231.1309" y2="266.1309"/><polygon fill="#181818" points="475.5,256.1309,479.5,266.1309,483.5,256.1309,479.5,260.1309" style="stroke:#181818;stroke-width:1.0;"/><line style="stroke:#181818;stroke-width:1.0;" x1="237" x2="155.5" y1="174.998" y2="174.998"/><line style="stroke:#181818;stroke-width:1.0;" x1="155.5" x2="155.5" y1="174.998" y2="196.998"/><polygon fill="#181818" points="151.5,186.998,155.5,196.998,159.5,186.998,155.5,190.998" style="stroke:#181818;stroke-width:1.0;"/><line style="stroke:#181818;stroke-width:1.0;" x1="398" x2="479.5" y1="174.998" y2="174.998"/><line style="stroke:#181818;stroke-width:1.0;" x1="479.5" x2="479.5" y1="174.998" y2="196.998"/><polygon fill="#181818" points="475.5,186.998,479.5,196.998,483.5,186.998,479.5,190.998" style="stroke:#181818;stroke-width:1.0;"/><line style="stroke:#181818;stroke-width:1.0;" x1="155.5" x2="155.5" y1="314.3965" y2="332.3965"/><line style="stroke:#181818;stroke-width:1.0;" x1="155.5" x2="305.5" y1="332.3965" y2="332.3965"/><polygon fill="#181818" points="295.5,328.3965,305.5,332.3965,295.5,336.3965,299.5,332.3965" style="stroke:#181818;stroke-width:1.0;"/><line style="stroke:#181818;stroke-width:1.0;" x1="479.5" x2="479.5" y1="300.2637" y2="332.3965"/><line style="stroke:#181818;stroke-width:1.0;" x1="479.5" x2="329.5" y1="332.3965" y2="332.3965"/><polygon fill="#181818" points="339.5,328.3965,329.5,332.3965,339.5,336.3965,335.5,332.3965" style="stroke:#181818;stroke-width:1.0;"/><line style="stroke:#181818;stroke-width:1.0;" x1="853" x2="853" y1="231.1309" y2="266.1309"/><polygon fill="#181818" points="849,256.1309,853,266.1309,857,256.1309,853,260.1309" style="stroke:#181818;stroke-width:1.0;"/><line style="stroke:#181818;stroke-width:1.0;" x1="1252.5" x2="1252.5" y1="231.1309" y2="266.1309"/><polygon fill="#181818" points="1248.5,256.1309,1252.5,266.1309,1256.5,256.1309,1252.5,260.1309" style="stroke:#181818;stroke-width:1.0;"/><line style="stroke:#181818;stroke-width:1.0;" x1="972.25" x2="853" y1="174.998" y2="174.998"/><line style="stroke:#181818;stroke-width:1.0;" x1="853" x2="853" y1="174.998" y2="196.998"/><polygon fill="#181818" points="849,186.998,853,196.998,857,186.998,853,190.998" style="stroke:#181818;stroke-width:1.0;"/><line style="stroke:#181818;stroke-width:1.0;" x1="1133.25" x2="1252.5" y1="174.998" y2="174.998"/><line style="stroke:#181818;stroke-width:1.0;" x1="1252.5" x2="1252.5" y1="174.998" y2="196.998"/><polygon fill="#181818" points="1248.5,186.998,1252.5,196.998,1256.5,186.998,1252.5,190.998" style="stroke:#181818;stroke-width:1.0;"/><line style="stroke:#181818;stroke-width:1.0;" x1="853" x2="853" y1="314.3965" y2="332.3965"/><line style="stroke:#181818;stroke-width:1.0;" x1="853" x2="1040.75" y1="332.3965" y2="332.3965"/><polygon fill="#181818" points="1030.75,328.3965,1040.75,332.3965,1030.75,336.3965,1034.75,332.3965" style="stroke:#181818;stroke-width:1.0;"/><line style="stroke:#181818;stroke-width:1.0;" x1="1252.5" x2="1252.5" y1="300.2637" y2="332.3965"/><line style="stroke:#181818;stroke-width:1.0;" x1="1252.5" x2="1064.75" y1="332.3965" y2="332.3965"/><polygon fill="#181818" points="1074.75,328.3965,1064.75,332.3965,1074.75,336.3965,1070.75,332.3965" style="stroke:#181818;stroke-width:1.0;"/><line style="stroke:#181818;stroke-width:1.0;" x1="1566.5" x2="1566.5" y1="237.6084" y2="272.6084"/><polygon fill="#181818" points="1562.5,262.6084,1566.5,272.6084,1570.5,262.6084,1566.5,266.6084" style="stroke:#181818;stroke-width:1.0;"/><line style="stroke:#181818;stroke-width:1.0;" x1="1869" x2="1869" y1="237.6084" y2="272.6084"/><polygon fill="#181818" points="1865,262.6084,1869,272.6084,1873,262.6084,1869,266.6084" style="stroke:#181818;stroke-width:1.0;"/><line style="stroke:#181818;stroke-width:1.0;" x1="1659.25" x2="1566.5" y1="181.4756" y2="181.4756"/><line style="stroke:#181818;stroke-width:1.0;" x1="1566.5" x2="1566.5" y1="181.4756" y2="203.4756"/><polygon fill="#181818" points="1562.5,193.4756,1566.5,203.4756,1570.5,193.4756,1566.5,197.4756" style="stroke:#181818;stroke-width:1.0;"/><line style="stroke:#181818;stroke-width:1.0;" x1="1776.25" x2="1869" y1="181.4756" y2="181.4756"/><line style="stroke:#181818;stroke-width:1.0;" x1="1869" x2="1869" y1="181.4756" y2="203.4756"/><polygon fill="#181818" points="1865,193.4756,1869,203.4756,1873,193.4756,1869,197.4756" style="stroke:#181818;stroke-width:1.0;"/><line style="stroke:#181818;stroke-width:1.0;" x1="1566.5" x2="1566.5" y1="306.7412" y2="338.874"/><line style="stroke:#181818;stroke-width:1.0;" x1="1566.5" x2="1705.75" y1="338.874" y2="338.874"/><polygon fill="#181818" points="1695.75,334.874,1705.75,338.874,1695.75,342.874,1699.75,338.874" style="stroke:#181818;stroke-width:1.0;"/><line style="stroke:#181818;stroke-width:1.0;" x1="1869" x2="1869" y1="320.874" y2="338.874"/><line style="stroke:#181818;stroke-width:1.0;" x1="1869" x2="1729.75" y1="338.874" y2="338.874"/><polygon fill="#181818" points="1739.75,334.874,1729.75,338.874,1739.75,342.874,1735.75,338.874" style="stroke:#181818;stroke-width:1.0;"/><line style="stroke:#181818;stroke-width:1.0;" x1="2302.5" x2="2302.5" y1="230.1758" y2="265.1758"/><polygon fill="#181818" points="2298.5,255.1758,2302.5,265.1758,2306.5,255.1758,2302.5,259.1758" style="stroke:#181818;stroke-width:1.0;"/><line style="stroke:#181818;stroke-width:1.0;" x1="2902.5" x2="2902.5" y1="230.1758" y2="265.1758"/><polygon fill="#181818" points="2898.5,255.1758,2902.5,265.1758,2906.5,255.1758,2902.5,259.1758" style="stroke:#181818;stroke-width:1.0;"/><line style="stroke:#181818;stroke-width:1.0;" x1="2456" x2="2302.5" y1="174.043" y2="174.043"/><line style="stroke:#181818;stroke-width:1.0;" x1="2302.5" x2="2302.5" y1="174.043" y2="196.043"/><polygon fill="#181818" points="2298.5,186.043,2302.5,196.043,2306.5,186.043,2302.5,190.043" style="stroke:#181818;stroke-width:1.0;"/><line style="stroke:#181818;stroke-width:1.0;" x1="2749" x2="2902.5" y1="174.043" y2="174.043"/><line style="stroke:#181818;stroke-width:1.0;" x1="2902.5" x2="2902.5" y1="174.043" y2="196.043"/><polygon fill="#181818" points="2898.5,186.043,2902.5,196.043,2906.5,186.043,2902.5,190.043" style="stroke:#181818;stroke-width:1.0;"/><line style="stroke:#181818;stroke-width:1.0;" x1="2302.5" x2="2302.5" y1="313.4414" y2="331.4414"/><line style="stroke:#181818;stroke-width:1.0;" x1="2302.5" x2="2590.5" y1="331.4414" y2="331.4414"/><polygon fill="#181818" points="2580.5,327.4414,2590.5,331.4414,2580.5,335.4414,2584.5,331.4414" style="stroke:#181818;stroke-width:1.0;"/><line style="stroke:#181818;stroke-width:1.0;" x1="2902.5" x2="2902.5" y1="313.4414" y2="331.4414"/><line style="stroke:#181818;stroke-width:1.0;" x1="2902.5" x2="2614.5" y1="331.4414" y2="331.4414"/><polygon fill="#181818" points="2624.5,327.4414,2614.5,331.4414,2624.5,335.4414,2620.5,331.4414" style="stroke:#181818;stroke-width:1.0;"/><line style="stroke:#181818;stroke-width:1.0;" x1="3737" x2="3737" y1="230.1758" y2="265.1758"/><polygon fill="#181818" points="3733,255.1758,3737,265.1758,3741,255.1758,3737,259.1758" style="stroke:#181818;stroke-width:1.0;"/><line style="stroke:#181818;stroke-width:1.0;" x1="4080" x2="4080" y1="312.1309" y2="347.1309"/><polygon fill="#181818" points="4076,337.1309,4080,347.1309,4084,337.1309,4080,341.1309" style="stroke:#181818;stroke-width:1.0;"/><line style="stroke:#181818;stroke-width:1.0;" x1="4460.5" x2="4460.5" y1="312.1309" y2="347.1309"/><polygon fill="#181818" points="4456.5,337.1309,4460.5,347.1309,4464.5,337.1309,4460.5,341.1309" style="stroke:#181818;stroke-width:1.0;"/><line style="stroke:#181818;stroke-width:1.0;" x1="4808" x2="4808" y1="312.1309" y2="347.1309"/><polygon fill="#181818" points="4804,337.1309,4808,347.1309,4812,337.1309,4808,341.1309" style="stroke:#181818;stroke-width:1.0;"/><line style="stroke:#181818;stroke-width:1.0;" x1="4080" x2="4080" y1="245.043" y2="277.998"/><polygon fill="#181818" points="4076,267.998,4080,277.998,4084,267.998,4080,271.998" style="stroke:#181818;stroke-width:1.0;"/><line style="stroke:#181818;stroke-width:1.0;" x1="4080" x2="4080" y1="395.3965" y2="415.3965"/><polygon fill="#181818" points="4076,405.3965,4080,415.3965,4084,405.3965,4080,409.3965" style="stroke:#181818;stroke-width:1.0;"/><line style="stroke:#181818;stroke-width:1.0;" x1="4460.5" x2="4460.5" y1="245.043" y2="277.998"/><polygon fill="#181818" points="4456.5,267.998,4460.5,277.998,4464.5,267.998,4460.5,271.998" style="stroke:#181818;stroke-width:1.0;"/><line style="stroke:#181818;stroke-width:1.0;" x1="4460.5" x2="4460.5" y1="381.2637" y2="415.3965"/><polygon fill="#181818" points="4456.5,405.3965,4460.5,415.3965,4464.5,405.3965,4460.5,409.3965" style="stroke:#181818;stroke-width:1.0;"/><line style="stroke:#181818;stroke-width:1.0;" x1="4808" x2="4808" y1="245.043" y2="277.998"/><polygon fill="#181818" points="4804,267.998,4808,277.998,4812,267.998,4808,271.998" style="stroke:#181818;stroke-width:1.0;"/><line style="stroke:#181818;stroke-width:1.0;" x1="4808" x2="4808" y1="381.2637" y2="415.3965"/><polygon fill="#181818" points="4804,405.3965,4808,415.3965,4812,405.3965,4808,409.3965" style="stroke:#181818;stroke-width:1.0;"/><line style="stroke:#181818;stroke-width:1.0;" x1="4199" x2="4363.5" y1="233.043" y2="233.043"/><polygon fill="#181818" points="4353.5,229.043,4363.5,233.043,4353.5,237.043,4357.5,233.043" style="stroke:#181818;stroke-width:1.0;"/><line style="stroke:#181818;stroke-width:1.0;" x1="4557.5" x2="4738.5" y1="233.043" y2="233.043"/><polygon fill="#181818" points="4728.5,229.043,4738.5,233.043,4728.5,237.043,4732.5,233.043" style="stroke:#181818;stroke-width:1.0;"/><line style="stroke:#181818;stroke-width:1.0;" x1="4186.25" x2="4452.5" y1="174.043" y2="174.043"/><line style="stroke:#181818;stroke-width:1.0;" x1="4452.5" x2="4452.5" y1="174.043" y2="196.043"/><line style="stroke:#181818;stroke-width:1.0;" x1="4452.5" x2="4080" y1="196.043" y2="196.043"/><line style="stroke:#181818;stroke-width:1.0;" x1="4080" x2="4080" y1="196.043" y2="221.043"/><polygon fill="#181818" points="4076,211.043,4080,221.043,4084,211.043,4080,215.043" style="stroke:#181818;stroke-width:1.0;"/><line style="stroke:#181818;stroke-width:1.0;" x1="4877.5" x2="4968" y1="233.043" y2="233.043"/><line style="stroke:#181818;stroke-width:1.0;" x1="4968" x2="4968" y1="233.043" y2="415.3965"/><polygon fill="#181818" points="4964,405.3965,4968,415.3965,4972,405.3965,4968,409.3965" style="stroke:#181818;stroke-width:1.0;"/><line style="stroke:#181818;stroke-width:1.0;" x1="4080" x2="4968" y1="415.3965" y2="415.3965"/><line style="stroke:#181818;stroke-width:1.0;" x1="4003.25" x2="3737" y1="174.043" y2="174.043"/><line style="stroke:#181818;stroke-width:1.0;" x1="3737" x2="3737" y1="174.043" y2="196.043"/><polygon fill="#181818" points="3733,186.043,3737,196.043,3741,186.043,3737,190.043" style="stroke:#181818;stroke-width:1.0;"/><line style="stroke:#181818;stroke-width:1.0;" x1="3737" x2="3737" y1="341.707" y2="433.3965"/><line style="stroke:#181818;stroke-width:1.0;" x1="3737" x2="4082.75" y1="433.3965" y2="433.3965"/><polygon fill="#181818" points="4072.75,429.3965,4082.75,433.3965,4072.75,437.3965,4076.75,433.3965" style="stroke:#181818;stroke-width:1.0;"/><line style="stroke:#181818;stroke-width:1.0;" x1="4452.5" x2="4452.5" y1="415.3965" y2="433.3965"/><line style="stroke:#181818;stroke-width:1.0;" x1="4452.5" x2="4106.75" y1="433.3965" y2="433.3965"/><polygon fill="#181818" points="4116.75,429.3965,4106.75,433.3965,4116.75,437.3965,4112.75,433.3965" style="stroke:#181818;stroke-width:1.0;"/><line style="stroke:#181818;stroke-width:1.0;" x1="5052" x2="5052" y1="282.4819" y2="306.9595"/><polygon fill="#181818" points="5048,296.9595,5052,306.9595,5056,296.9595,5052,300.9595" style="stroke:#181818;stroke-width:1.0;"/><line style="stroke:#181818;stroke-width:1.0;" x1="5122" x2="5134" y1="270.4819" y2="270.4819"/><polygon fill="#181818" points="5130,314.0259,5134,324.0259,5138,314.0259,5134,318.0259" style="stroke:#181818;stroke-width:1.0;"/><line style="stroke:#181818;stroke-width:1.0;" x1="5134" x2="5134" y1="270.4819" y2="377.5698"/><line style="stroke:#181818;stroke-width:1.0;" x1="5134" x2="5064" y1="377.5698" y2="377.5698"/><polygon fill="#181818" points="5074,373.5698,5064,377.5698,5074,381.5698,5070,377.5698" style="stroke:#181818;stroke-width:1.0;"/><line style="stroke:#181818;stroke-width:1.0;" x1="5052" x2="5052" y1="341.0923" y2="365.5698"/><polygon fill="#181818" points="5048,355.5698,5052,365.5698,5056,355.5698,5052,359.5698" style="stroke:#181818;stroke-width:1.0;"/><line style="stroke:#181818;stroke-width:1.0;" x1="317.5" x2="317.5" y1="130.043" y2="162.998"/><polygon fill="#181818" points="313.5,152.998,317.5,162.998,321.5,152.998,317.5,156.998" style="stroke:#181818;stroke-width:1.0;"/><line style="stroke:#181818;stroke-width:1.0;" x1="317.5" x2="317.5" y1="344.3965" y2="465.3965"/><polygon fill="#181818" points="313.5,455.3965,317.5,465.3965,321.5,455.3965,317.5,459.3965" style="stroke:#181818;stroke-width:1.0;"/><line style="stroke:#181818;stroke-width:1.0;" x1="1052.75" x2="1052.75" y1="130.043" y2="162.998"/><polygon fill="#181818" points="1048.75,152.998,1052.75,162.998,1056.75,152.998,1052.75,156.998" style="stroke:#181818;stroke-width:1.0;"/><line style="stroke:#181818;stroke-width:1.0;" x1="1052.75" x2="1052.75" y1="344.3965" y2="465.3965"/><polygon fill="#181818" points="1048.75,455.3965,1052.75,465.3965,1056.75,455.3965,1052.75,459.3965" style="stroke:#181818;stroke-width:1.0;"/><line style="stroke:#181818;stroke-width:1.0;" x1="1717.75" x2="1717.75" y1="136.5205" y2="169.4756"/><polygon fill="#181818" points="1713.75,159.4756,1717.75,169.4756,1721.75,159.4756,1717.75,163.4756" style="stroke:#181818;stroke-width:1.0;"/><line style="stroke:#181818;stroke-width:1.0;" x1="1717.75" x2="1717.75" y1="350.874" y2="465.3965"/><polygon fill="#181818" points="1713.75,455.3965,1717.75,465.3965,1721.75,455.3965,1717.75,459.3965" style="stroke:#181818;stroke-width:1.0;"/><line style="stroke:#181818;stroke-width:1.0;" x1="2602.5" x2="2602.5" y1="129.0879" y2="162.043"/><polygon fill="#181818" points="2598.5,152.043,2602.5,162.043,2606.5,152.043,2602.5,156.043" style="stroke:#181818;stroke-width:1.0;"/><line style="stroke:#181818;stroke-width:1.0;" x1="2602.5" x2="2602.5" y1="343.4414" y2="465.3965"/><polygon fill="#181818" points="2598.5,455.3965,2602.5,465.3965,2606.5,455.3965,2602.5,459.3965" style="stroke:#181818;stroke-width:1.0;"/><line style="stroke:#181818;stroke-width:1.0;" x1="3398" x2="3398" y1="129.0879" y2="162.043"/><polygon fill="#181818" points="3394,152.043,3398,162.043,3402,152.043,3398,156.043" style="stroke:#181818;stroke-width:1.0;"/><line style="stroke:#181818;stroke-width:1.0;" x1="3398" x2="3398" y1="210.3086" y2="465.3965"/><polygon fill="#181818" points="3394,455.3965,3398,465.3965,3402,455.3965,3398,459.3965" style="stroke:#181818;stroke-width:1.0;"/><line style="stroke:#181818;stroke-width:1.0;" x1="4094.75" x2="4094.75" y1="129.0879" y2="162.043"/><polygon fill="#181818" points="4090.75,152.043,4094.75,162.043,4098.75,152.043,4094.75,156.043" style="stroke:#181818;stroke-width:1.0;"/><line style="stroke:#181818;stroke-width:1.0;" x1="4094.75" x2="4094.75" y1="445.3965" y2="465.3965"/><polygon fill="#181818" points="4090.75,455.3965,4094.75,465.3965,4098.75,455.3965,4094.75,459.3965" style="stroke:#181818;stroke-width:1.0;"/><line style="stroke:#181818;stroke-width:1.0;" x1="409" x2="950.25" y1="117.0879" y2="117.0879"/><polygon fill="#181818" points="940.25,113.0879,950.25,117.0879,940.25,121.0879,944.25,117.0879" style="stroke:#181818;stroke-width:1.0;"/><line style="stroke:#181818;stroke-width:1.0;" x1="1155.25" x2="1535.75" y1="117.0879" y2="117.0879"/><polygon fill="#181818" points="1525.75,113.0879,1535.75,117.0879,1525.75,121.0879,1529.75,117.0879" style="stroke:#181818;stroke-width:1.0;"/><line style="stroke:#181818;stroke-width:1.0;" x1="1899.75" x2="2546.5" y1="117.0879" y2="117.0879"/><polygon fill="#181818" points="2536.5,113.0879,2546.5,117.0879,2536.5,121.0879,2540.5,117.0879" style="stroke:#181818;stroke-width:1.0;"/><line style="stroke:#181818;stroke-width:1.0;" x1="2658.5" x2="3356" y1="117.0879" y2="117.0879"/><polygon fill="#181818" points="3346,113.0879,3356,117.0879,3346,121.0879,3350,117.0879" style="stroke:#181818;stroke-width:1.0;"/><line style="stroke:#181818;stroke-width:1.0;" x1="3440" x2="4030.75" y1="117.0879" y2="117.0879"/><polygon fill="#181818" points="4020.75,113.0879,4030.75,117.0879,4020.75,121.0879,4024.75,117.0879" style="stroke:#181818;stroke-width:1.0;"/><line style="stroke:#181818;stroke-width:1.0;" x1="2583.5" x2="2583.5" y1="84.1328" y2="89.1328"/><line style="stroke:#181818;stroke-width:1.0;" x1="2583.5" x2="317.5" y1="89.1328" y2="89.1328"/><line style="stroke:#181818;stroke-width:1.0;" x1="317.5" x2="317.5" y1="89.1328" y2="104.1328"/><polygon fill="#181818" points="313.5,94.1328,317.5,104.1328,321.5,94.1328,317.5,98.1328" style="stroke:#181818;stroke-width:1.0;"/><line style="stroke:#181818;stroke-width:1.0;" x1="4158.75" x2="5052" y1="117.0879" y2="117.0879"/><line style="stroke:#181818;stroke-width:1.0;" x1="5052" x2="5052" y1="117.0879" y2="258.4819"/><polygon fill="#181818" points="5048,248.4819,5052,258.4819,5056,248.4819,5052,252.4819" style="stroke:#181818;stroke-width:1.0;"/><line style="stroke:#181818;stroke-width:1.0;" x1="5052" x2="5052" y1="389.5698" y2="465.3965"/><polygon fill="#181818" points="5048,455.3965,5052,465.3965,5056,455.3965,5052,459.3965" style="stroke:#181818;stroke-width:1.0;"/><line style="stroke:#181818;stroke-width:1.0;" x1="317.5" x2="5052" y1="465.3965" y2="465.3965"/><line style="stroke:#181818;stroke-width:1.0;" x1="2583.5" x2="2583.5" y1="465.3965" y2="485.3965"/><polygon fill="#181818" points="2579.5,475.3965,2583.5,485.3965,2587.5,475.3965,2583.5,479.3965" style="stroke:#181818;stroke-width:1.0;"/><!--SRC=[jLTBKo994BxxApXY117UcSCSDyA9lU_1oyI8OknkEo7EGKzKWmu8lbR4juAWtTeyLtTLv7703V_7D5LDdvoVi5bLtSsh6vc8aI28fhegwyillypA2Yn-N5WSyvBgESxlgQY08wjw-lJTsDoCozswp-EZ6XtSpDAtOhZLs6FJP1p9acHUHPAArbKnzdvASF_ouJSlhjnfgmSm1Q_SQ_de-BXhqUyJNEubNs1yp0MV7hFMfkrhCDKWoGSLnLKaKeC3A-d7-sqxDNIrWkixAbfzrrdHgiUyBZKORpKoQd1THSL-fv3aSIqz9y0dQaSCUbnJ0imdM_M- -SP-yEfIPgyAscwfLTinZIpxcodB2aVW-oFWSxc5-HuFqhXsZZCbalngS5ez9E5Duo-ImHKLNQle25ZGGq3qQe-Bubza8wqbP1iNjR81kMS3QX5-BqcqhAAmnxNGb8MNQWH7GY_LA9ZMpsx0ADvCmdu6Qc5wRcQCOgVH8diNG05u223nzWsOrz4kS0oXed6kdTE7BGZRFYU8Ii5yKI2HBLLSqvIOYjBMF5KKuHNyuYq5g1fH9CeFYEISRsJ1SD8CEAwY4me6rU7ho2oEYqvYmF4W5mF82VWrjvGDLsaa2rnZpOhGHxTdIW3hGRe3aRuwoaqwu3kGFGb6G75svfVzJpk2VJZjH9XvAn6Iauo323iMJSm1_nDYMYoNHzOYESvrPnvLs-G7R-jnZUmd-6RwPjep-Ukab_yZeHMSAkEpYdQK9RktM3neLMBa8Zyn9O0HNKdGYB5wDK7AKRhWdpiGMrTgossABGCf1F5bwECyI1ZTKbbUtMYt9HZKmcagWDGjtehOQxfz2OlFjAC2DL6jMXOTTPorCWngCbjn0DFDeDa6uQLw257G5QePe9Ozx_ULAqPsSVO9pOzIhoxUG2eS9Sas39G8SWSuNEV8Fld_KmGBchKGKeLzupYrmpL6d_- -PyyWfsPA-34DNO074_n8UsyRiCxSKjgKGq5xG9Oqh6nrc61KFCS0N-9Y7JUEULnjZLc5ohauLKASHK3B-9Ffu8D1BHZbkTM5Yl7soFDK6gWaV3KidVtol27CqjLCFXOIpkrWM4ZwU108aSl3WH3bqHa8h8QbIq-ACuuXofMwsUt4ihF_2EoIc57wpVKI7Opkia458aLb54-gS2QAyUxgm7gZOly4wbsusq73Kf5l1SxED2kZKwwlHWVHwIk9duJEj5JaMm6wvI_Dt2kHiCysA8gsQSQ9_hPDjVBzF5uptFbtXKWXUkR5gZIX0L8mBimrvS_DD7HdwxH52nf7v_SooXbdfrpHw_kidfmnHsGA5O9h694CmC7uz3JuCTrCqtKT-FsWfLRjM1MZZ9apexknhHEZLqZ7Id3rPbtXxZPdPt4Ek0Doj4HfyBJbNI_Zirtd2LaC-9jvUZglerVcL_dyXUO3dRvoCNIwVgkCWCSfgxjRGwbr7sn7SjeXHFhQxEoaxeFLw3I7zuj60Aw7dhLX85s_JBv2kaKyzRFIC1eXExiqC1cvEut-R7RHrMFH80xVfCnEyuQr7WLJ2AoUhwTvqlVi0daW8e_hz-SDMtvDZdjPxIBGxFcjndaK9fMX5aOZa2LsFbTnuxkCLaxHG8fhurOnQX-Lt73Vkk8ZSRu94uBIRcnRHOnEiLnMW-AWr-rOkNrzIf6OrmnsMphZoXdgPkvd2eRvgwJlt6e8xaT5LMoeeQeQKYoNaO4K5Vo-Jt1dzpdunQflRntkP10hRiSdUi68nWIz0sSAx0cSIOOSorCUEcnyT4flVmTPd4roPtigFliDBCv__Xy0]--></g></svg>