<?xml version="1.0" encoding="us-ascii" standalone="no"?><svg xmlns="http://www.w3.org/2000/svg" xmlns:xlink="http://www.w3.org/1999/xlink" contentStyleType="text/css" height="486px" preserveAspectRatio="none" style="width:4405px;height:486px;background:#1B1B1B;" version="1.1" viewBox="0 0 4405 486" width="4405px" zoomAndPan="magnify"><defs/><g><rect fill="#1B1B1B" height="486" style="stroke:none;stroke-width:1.0;" width="4405" x="0" y="0"/><ellipse cx="2205" cy="20" fill="#DDDDDD" rx="10" ry="10" style="stroke:#DDDDDD;stroke-width:1.0;"/><rect fill="#313139" height="33.9688" rx="12.5" ry="12.5" style="stroke:#E7E7E7;stroke-width:0.5;" width="80" x="2165" y="50"/><text fill="#FFFFFF" font-family="sans-serif" font-size="12" lengthAdjust="spacing" textLength="60" x="2175" y="71.1387">&#28450;&#23383;&#12398;&#20998;&#39006;</text><polygon fill="#313139" points="238,103.9688,398,103.9688,410,116.7734,398,129.5781,238,129.5781,226,116.7734,238,103.9688" style="stroke:#E7E7E7;stroke-width:0.5;"/><text fill="#FFFFFF" font-family="sans-serif" font-size="11" lengthAdjust="spacing" textLength="20" x="322" y="139.7886">yes</text><text fill="#FFFFFF" font-family="sans-serif" font-size="11" lengthAdjust="spacing" textLength="160" x="238" y="114.1792">&#20013;&#22269;&#12398;&#21476;&#23383;&#12420;&#20439;&#23383;&#12392;&#21028;&#26029;&#12391;&#12365;&#12427;?</text><text fill="#FFFFFF" font-family="sans-serif" font-size="11" lengthAdjust="spacing" textLength="90" x="238" y="126.9839">(GKX:&#24247;&#29081;&#23383;&#20856;&#31561;)</text><polygon fill="#313139" points="249,162.3828,387,162.3828,399,174.3828,387,186.3828,249,186.3828,237,174.3828,249,162.3828" style="stroke:#E7E7E7;stroke-width:0.5;"/><text fill="#FFFFFF" font-family="sans-serif" font-size="11" lengthAdjust="spacing" textLength="138" x="249" y="178.1909">&#20013;&#22269;&#12398;&#28450;&#23383;&#12398;&#35501;&#12415;&#26041;&#12364;&#12354;&#12427;?</text><text fill="#FFFFFF" font-family="sans-serif" font-size="11" lengthAdjust="spacing" textLength="20" x="217" y="171.7886">yes</text><text fill="#FFFFFF" font-family="sans-serif" font-size="11" lengthAdjust="spacing" textLength="14" x="399" y="171.7886">no</text><rect fill="#313139" height="33.9688" rx="12.5" ry="12.5" style="stroke:#E7E7E7;stroke-width:0.5;" width="175" x="68" y="196.3828"/><text fill="#FFFFFF" font-family="sans-serif" font-size="12" lengthAdjust="spacing" textLength="155" x="78" y="217.5215">&#9312;&#20013;&#22269;&#12398;&#28450;&#23383;&#12398;&#35501;&#12415;&#26041;&#12395;&#24467;&#12358;</text><rect fill="#313139" height="47.9375" rx="12.5" ry="12.5" style="stroke:#E7E7E7;stroke-width:0.5;" width="289" x="11" y="265.3516"/><text fill="#FFFFFF" font-family="sans-serif" font-size="12" lengthAdjust="spacing" textLength="202" x="21" y="286.4902">&#20363;: &#12300;&#20451;&#12301;&#12399;&#20013;&#22269;&#12398;&#21476;&#23383;&#12391;, y&#468;&#12392;&#35501;&#12416;,</text><text fill="#FFFFFF" font-family="sans-serif" font-size="12" lengthAdjust="spacing" textLength="269" x="21" y="300.459">&#12300;&#25662;&#12301;&#12399;&#20013;&#22269;&#12398;&#28450;&#23383;&#12300;&#27048;&#12301;&#12398;&#30064;&#20307;&#23383;&#12391;, zh&#224;&#12392;&#35501;&#12416;</text><rect fill="#313139" height="33.9688" rx="12.5" ry="12.5" style="stroke:#E7E7E7;stroke-width:0.5;" width="307" x="327" y="196.3828"/><text fill="#FFFFFF" font-family="sans-serif" font-size="12" lengthAdjust="spacing" textLength="287" x="337" y="217.5215">&#9313;&#24418;&#22768;&#25991;&#23383;&#12420;&#20250;&#24847;&#25991;&#23383;&#12392;&#12415;&#12394;&#12379;&#12427;&#37096;&#20998;&#12398;&#35501;&#12415;&#26041;&#12434;&#25505;&#29992;</text><rect fill="#313139" height="33.9688" rx="12.5" ry="12.5" style="stroke:#E7E7E7;stroke-width:0.5;" width="321" x="320" y="265.3516"/><text fill="#FFFFFF" font-family="sans-serif" font-size="12" lengthAdjust="spacing" textLength="301" x="330" y="286.4902">&#20363;: &#12300;&#31870;&#12301;&#12399;&#24418;&#22768;&#25991;&#23383;&#12392;&#12375;&#12390;&#25201;&#12356;, r&#232;n&#65288;&#20995;&#65289;&#12398;&#38899;&#12434;&#21462;&#12427;</text><polygon fill="#313139" points="318,319.2891,330,331.2891,318,343.2891,306,331.2891,318,319.2891" style="stroke:#E7E7E7;stroke-width:0.5;"/><polygon fill="#313139" points="966.25,103.9688,1148.25,103.9688,1160.25,116.7734,1148.25,129.5781,966.25,129.5781,954.25,116.7734,966.25,103.9688" style="stroke:#E7E7E7;stroke-width:0.5;"/><text fill="#FFFFFF" font-family="sans-serif" font-size="11" lengthAdjust="spacing" textLength="20" x="1061.25" y="139.7886">yes</text><text fill="#FFFFFF" font-family="sans-serif" font-size="11" lengthAdjust="spacing" textLength="182" x="966.25" y="114.1792">&#26085;&#20013;&#12391;&#24847;&#21619;&#12399;&#36949;&#12358;&#12364;&#23383;&#24418;&#12364;&#21516;&#12376;&#28450;&#23383;?</text><text fill="#FFFFFF" font-family="sans-serif" font-size="11" lengthAdjust="spacing" textLength="173" x="966.25" y="126.9839">(&#23383;&#24418;&#12398;&#25104;&#12426;&#31435;&#12385;&#12364;&#21516;&#12376;&#12418;&#12398;&#12418;&#21547;&#12416;)</text><polygon fill="#313139" points="988.25,162.3828,1126.25,162.3828,1138.25,174.3828,1126.25,186.3828,988.25,186.3828,976.25,174.3828,988.25,162.3828" style="stroke:#E7E7E7;stroke-width:0.5;"/><text fill="#FFFFFF" font-family="sans-serif" font-size="11" lengthAdjust="spacing" textLength="138" x="988.25" y="178.1909">&#20013;&#22269;&#12398;&#28450;&#23383;&#12395;&#35501;&#12415;&#26041;&#12364;&#12354;&#12427;?</text><text fill="#FFFFFF" font-family="sans-serif" font-size="11" lengthAdjust="spacing" textLength="20" x="956.25" y="171.7886">yes</text><text fill="#FFFFFF" font-family="sans-serif" font-size="11" lengthAdjust="spacing" textLength="14" x="1138.25" y="171.7886">no</text><rect fill="#313139" height="33.9688" rx="12.5" ry="12.5" style="stroke:#E7E7E7;stroke-width:0.5;" width="271" x="720.5" y="196.3828"/><text fill="#FFFFFF" font-family="sans-serif" font-size="12" lengthAdjust="spacing" textLength="251" x="730.5" y="217.5215">&#9314;&#21516;&#12376;&#23383;&#24418;&#12398;&#20013;&#22269;&#12398;&#28450;&#23383;&#12398;&#35501;&#12415;&#12434;&#12381;&#12398;&#12414;&#12414;&#25505;&#29992;</text><rect fill="#313139" height="47.9375" rx="12.5" ry="12.5" style="stroke:#E7E7E7;stroke-width:0.5;" width="410" x="651" y="265.3516"/><text fill="#FFFFFF" font-family="sans-serif" font-size="12" lengthAdjust="spacing" textLength="390" x="661" y="286.4902">&#20363;: &#12300;&#21250;&#12301;&#12399;&#20013;&#22269;&#12398;&#28450;&#23383;&#12300;&#21248;&#12301;&#12398;&#21476;&#12356;&#23383;&#24418;&#12392;&#21516;&#12376;&#12394;&#12398;&#12391;, y&#250;n&#12398;&#38899;&#12434;&#21462;&#12427;,</text><text fill="#FFFFFF" font-family="sans-serif" font-size="12" lengthAdjust="spacing" textLength="361" x="665" y="300.459">&#12300;&#27079;&#12301;&#12399;&#20013;&#22269;&#12398;&#28450;&#23383;&#12300;&#27097;&#12301;&#12398;&#26087;&#23383;&#20307;&#12392;&#21516;&#12376;&#12394;&#12398;&#12391;, zh&#275;n&#12398;&#38899;&#12434;&#21462;&#12427;</text><rect fill="#313139" height="33.9688" rx="12.5" ry="12.5" style="stroke:#E7E7E7;stroke-width:0.5;" width="307" x="1105" y="196.3828"/><text fill="#FFFFFF" font-family="sans-serif" font-size="12" lengthAdjust="spacing" textLength="287" x="1115" y="217.5215">&#9315;&#24418;&#22768;&#25991;&#23383;&#12420;&#20250;&#24847;&#25991;&#23383;&#12392;&#12415;&#12394;&#12379;&#12427;&#37096;&#20998;&#12398;&#35501;&#12415;&#26041;&#12434;&#25505;&#29992;</text><rect fill="#313139" height="33.9688" rx="12.5" ry="12.5" style="stroke:#E7E7E7;stroke-width:0.5;" width="355" x="1081" y="265.3516"/><text fill="#FFFFFF" font-family="sans-serif" font-size="12" lengthAdjust="spacing" textLength="335" x="1091" y="286.4902">&#20363;: &#12300;&#26467;&#12301;&#12399;&#24418;&#22768;&#25991;&#23383;&#12392;&#12415;&#12394;&#12379;&#12427;&#12398;&#12391;, sh&#257;n&#65288;&#23665;&#65289;&#12398;&#38899;&#12434;&#21462;&#12427;</text><polygon fill="#313139" points="1057.25,319.2891,1069.25,331.2891,1057.25,343.2891,1045.25,331.2891,1057.25,319.2891" style="stroke:#E7E7E7;stroke-width:0.5;"/><polygon fill="#313139" points="1639.5,97.5664,1977.5,97.5664,1989.5,116.7734,1977.5,135.9805,1639.5,135.9805,1627.5,116.7734,1639.5,97.5664" style="stroke:#E7E7E7;stroke-width:0.5;"/><text fill="#FFFFFF" font-family="sans-serif" font-size="11" lengthAdjust="spacing" textLength="20" x="1812.5" y="146.1909">yes</text><text fill="#FFFFFF" font-family="sans-serif" font-size="11" lengthAdjust="spacing" textLength="72" x="1639.5" y="107.7769">&#26085;&#26412;&#12398;&#30064;&#20307;&#23383;?</text><text fill="#FFFFFF" font-family="sans-serif" font-size="11" lengthAdjust="spacing" textLength="210" x="1639.5" y="120.5815">(JK:&#20170;&#26132;&#25991;&#23383;&#37857;,JMJ:&#25991;&#23383;&#24773;&#22577;&#22522;&#30436;&#25972;&#20633;&#20107;&#26989;/</text><text fill="#FFFFFF" font-family="sans-serif" font-size="11" lengthAdjust="spacing" textLength="338" x="1639.5" y="133.3862">&#30064;&#39636;&#23383;&#23383;&#20856;/&#27721;&#23383;&#28023;&#12395;&#30064;&#20307;&#23383;&#12392;&#36617;&#12387;&#12390;&#12356;&#12427;&#12364;&#20013;&#22269;&#20596;&#12395;&#35443;&#32048;&#12364;&#28961;&#12356;&#22580;&#21512;)</text><polygon fill="#313139" points="1761.5,168.7852,1855.5,168.7852,1867.5,180.7852,1855.5,192.7852,1761.5,192.7852,1749.5,180.7852,1761.5,168.7852" style="stroke:#E7E7E7;stroke-width:0.5;"/><text fill="#FFFFFF" font-family="sans-serif" font-size="11" lengthAdjust="spacing" textLength="94" x="1761.5" y="184.5933">&#35211;&#12383;&#30446;&#12364;&#20284;&#12390;&#12356;&#12427;?</text><text fill="#FFFFFF" font-family="sans-serif" font-size="11" lengthAdjust="spacing" textLength="20" x="1729.5" y="178.1909">yes</text><text fill="#FFFFFF" font-family="sans-serif" font-size="11" lengthAdjust="spacing" textLength="14" x="1867.5" y="178.1909">no</text><rect fill="#313139" height="33.9688" rx="12.5" ry="12.5" style="stroke:#E7E7E7;stroke-width:0.5;" width="175" x="1488.5" y="202.7852"/><text fill="#FFFFFF" font-family="sans-serif" font-size="12" lengthAdjust="spacing" textLength="155" x="1498.5" y="223.9238">&#9316;&#23383;&#24418;&#12364;&#39006;&#20284;&#12377;&#12427;&#25991;&#23383;&#12434;&#25505;&#29992;</text><rect fill="#313139" height="33.9688" rx="12.5" ry="12.5" style="stroke:#E7E7E7;stroke-width:0.5;" width="260" x="1446" y="271.7539"/><text fill="#FFFFFF" font-family="sans-serif" font-size="12" lengthAdjust="spacing" textLength="240" x="1456" y="292.8926">&#20363;&#65306;&#12300;&#39641;&#12301;&#65288;&#12300;&#39640;&#12301;&#12398;&#30064;&#20307;&#23383;&#65289;&#12399;g&#257;o&#12392;&#35501;&#12416;</text><polygon fill="#313139" points="1961,202.7852,2121,202.7852,2133,214.7852,2121,226.7852,1961,226.7852,1949,214.7852,1961,202.7852" style="stroke:#E7E7E7;stroke-width:0.5;"/><text fill="#FFFFFF" font-family="sans-serif" font-size="11" lengthAdjust="spacing" textLength="160" x="1961" y="218.5933">&#24418;&#22768;&#25991;&#23383;&#12420;&#20250;&#24847;&#25991;&#23383;&#12392;&#12415;&#12394;&#12379;&#12427;?</text><text fill="#FFFFFF" font-family="sans-serif" font-size="11" lengthAdjust="spacing" textLength="20" x="1929" y="212.1909">yes</text><text fill="#FFFFFF" font-family="sans-serif" font-size="11" lengthAdjust="spacing" textLength="14" x="2133" y="212.1909">no</text><rect fill="#313139" height="33.9688" rx="12.5" ry="12.5" style="stroke:#E7E7E7;stroke-width:0.5;" width="307" x="1736" y="236.7852"/><text fill="#FFFFFF" font-family="sans-serif" font-size="12" lengthAdjust="spacing" textLength="287" x="1746" y="257.9238">&#9317;&#24418;&#22768;&#25991;&#23383;&#12420;&#20250;&#24847;&#25991;&#23383;&#12392;&#12415;&#12394;&#12379;&#12427;&#37096;&#20998;&#12398;&#35501;&#12415;&#26041;&#12434;&#25505;&#29992;</text><rect fill="#313139" height="47.9375" rx="12.5" ry="12.5" style="stroke:#E7E7E7;stroke-width:0.5;" width="224" x="1777.5" y="305.7539"/><text fill="#FFFFFF" font-family="sans-serif" font-size="12" lengthAdjust="spacing" textLength="199" x="1787.5" y="326.8926">&#20363;&#65306;&#12300;&#26943;&#12301;&#65288;&#12388;&#12400;&#12365;&#65289;&#12399;ch&#363;n&#12392;&#35501;&#12416;</text><text fill="#FFFFFF" font-family="sans-serif" font-size="12" lengthAdjust="spacing" textLength="204" x="1787.5" y="340.8613">&#12288;&#12288;&#12300;&#22547;&#12301;&#12399;&#12300;&#23736;&#12301;&#12391;, &#224;n&#12398;&#38899;&#12434;&#21462;&#12427;</text><rect fill="#313139" height="33.9688" rx="12.5" ry="12.5" style="stroke:#E7E7E7;stroke-width:0.5;" width="259" x="2063" y="236.7852"/><text fill="#FFFFFF" font-family="sans-serif" font-size="12" lengthAdjust="spacing" textLength="239" x="2073" y="257.9238">&#9318;&#23383;&#24418;&#12364;&#39006;&#20284;&#12377;&#12427;&#25991;&#23383;&#12420;&#37096;&#39318;&#12398;&#35501;&#12415;&#26041;&#12434;&#25505;&#29992;</text><polygon fill="#313139" points="2041,359.6914,2053,371.6914,2041,383.6914,2029,371.6914,2041,359.6914" style="stroke:#E7E7E7;stroke-width:0.5;"/><polygon fill="#313139" points="1808.5,389.6914,1820.5,401.6914,1808.5,413.6914,1796.5,401.6914,1808.5,389.6914" style="stroke:#E7E7E7;stroke-width:0.5;"/><polygon fill="#313139" points="2861.5,104.7734,2948.5,104.7734,2960.5,116.7734,2948.5,128.7734,2861.5,128.7734,2849.5,116.7734,2861.5,104.7734" style="stroke:#E7E7E7;stroke-width:0.5;"/><text fill="#FFFFFF" font-family="sans-serif" font-size="11" lengthAdjust="spacing" textLength="20" x="2909" y="138.9839">yes</text><text fill="#FFFFFF" font-family="sans-serif" font-size="11" lengthAdjust="spacing" textLength="87" x="2861.5" y="120.5815">&#26085;&#26412;&#12398;&#30053;&#23383;/&#20439;&#23383;?</text><polygon fill="#313139" points="2770,161.5781,3040,161.5781,3052,173.5781,3040,185.5781,2770,185.5781,2758,173.5781,2770,161.5781" style="stroke:#E7E7E7;stroke-width:0.5;"/><text fill="#FFFFFF" font-family="sans-serif" font-size="11" lengthAdjust="spacing" textLength="270" x="2770" y="177.3862">&#26085;&#26412;&#12398;&#31777;&#20307;&#23383;&#12398;&#32321;&#20307;&#23383;&#12392;&#20013;&#22269;&#12398;&#31777;&#20307;&#23383;&#12398;&#32321;&#20307;&#23383;&#12364;&#21516;&#12376;?</text><text fill="#FFFFFF" font-family="sans-serif" font-size="11" lengthAdjust="spacing" textLength="20" x="2738" y="170.9839">yes</text><text fill="#FFFFFF" font-family="sans-serif" font-size="11" lengthAdjust="spacing" textLength="14" x="3052" y="170.9839">no</text><rect fill="#313139" height="33.9688" rx="12.5" ry="12.5" style="stroke:#E7E7E7;stroke-width:0.5;" width="223" x="2492.5" y="195.5781"/><text fill="#FFFFFF" font-family="sans-serif" font-size="12" lengthAdjust="spacing" textLength="203" x="2502.5" y="216.7168">&#9319;&#23550;&#24540;&#12377;&#12427;&#20013;&#22269;&#12398;&#31777;&#20307;&#23383;&#12398;&#35501;&#12415;&#12434;&#25505;&#29992;</text><rect fill="#313139" height="47.9375" rx="12.5" ry="12.5" style="stroke:#E7E7E7;stroke-width:0.5;" width="544" x="2332" y="264.5469"/><text fill="#FFFFFF" font-family="sans-serif" font-size="12" lengthAdjust="spacing" textLength="524" x="2342" y="285.6855">&#20363;: &#12300;&#24195;&#12301;&#65288;&#26085;&#65289;&#12392;&#12300;&#24191;&#12301;&#65288;&#20013;&#65289;&#12398;&#32321;&#20307;&#23383;&#12399;&#12300;&#24291;&#12301;&#12391;&#21516;&#12376;&#12394;&#12398;&#12391;, &#12300;&#24191;&#65288;gu&#462;ng&#65289;&#12301;&#12398;&#35501;&#12415;&#12434;&#21462;&#12427;</text><text fill="#FFFFFF" font-family="sans-serif" font-size="12" lengthAdjust="spacing" textLength="513" x="2342" y="299.6543">&#12288;&#12288;&#12300;&#26716;&#12301;&#65288;&#26085;&#65289;&#12392;&#12300;&#27185;&#12301;&#65288;&#20013;&#65289;&#12398;&#32321;&#20307;&#23383;&#12399;&#12300;&#27387;&#12301;&#12391;&#21516;&#12376;&#12394;&#12398;&#12391;, &#12300;&#27185;&#65288;y&#299;ng&#65289;&#12301;&#12398;&#35501;&#12415;&#12434;&#21462;&#12427;</text><rect fill="#313139" height="33.9688" rx="12.5" ry="12.5" style="stroke:#E7E7E7;stroke-width:0.5;" width="223" x="3094.5" y="195.5781"/><text fill="#FFFFFF" font-family="sans-serif" font-size="12" lengthAdjust="spacing" textLength="203" x="3104.5" y="216.7168">&#9320;&#23550;&#24540;&#12377;&#12427;&#26085;&#26412;&#12398;&#32321;&#20307;&#23383;&#12398;&#35501;&#12415;&#12434;&#25505;&#29992;</text><rect fill="#313139" height="47.9375" rx="12.5" ry="12.5" style="stroke:#E7E7E7;stroke-width:0.5;" width="620" x="2896" y="264.5469"/><text fill="#FFFFFF" font-family="sans-serif" font-size="12" lengthAdjust="spacing" textLength="592" x="2906" y="285.6855">&#20363;: &#12300;&#25282;&#12301;&#12399;&#26085;&#26412;&#12391;&#12300;&#25173;&#12301;&#12395;&#31777;&#30053;&#21270;&#12373;&#12428;&#12427;&#12364;&#20013;&#22269;&#12391;&#12399;&#31777;&#30053;&#21270;&#12373;&#12428;&#12394;&#12356;&#12398;&#12391;, &#12300;&#25173;&#12301;&#12399;&#12300;&#25282;&#65288;f&#250;&#65289;&#12301;&#12398;&#35501;&#12415;&#12434;&#21462;&#12427;</text><text fill="#FFFFFF" font-family="sans-serif" font-size="12" lengthAdjust="spacing" textLength="600" x="2906" y="299.6543">&#12288;&#12288;&#12300;&#37257;&#12301;&#12399;&#26085;&#26412;&#12391;&#12300;&#37204;&#12301;&#12395;&#31777;&#30053;&#21270;&#12373;&#12428;&#12427;&#12364;&#20013;&#22269;&#12391;&#12399;&#31777;&#30053;&#21270;&#12373;&#12428;&#12394;&#12356;&#12398;&#12391;, &#12300;&#37204;&#12301;&#12399;&#12300;&#37257;&#65288;zu&#236;&#65289;&#12301;&#12398;&#35501;&#12415;&#12434;&#21462;&#12427;</text><polygon fill="#313139" points="2905,318.4844,2917,330.4844,2905,342.4844,2893,330.4844,2905,318.4844" style="stroke:#E7E7E7;stroke-width:0.5;"/><polygon fill="#313139" points="3805.5,104.7734,3910.5,104.7734,3922.5,116.7734,3910.5,128.7734,3805.5,128.7734,3793.5,116.7734,3805.5,104.7734" style="stroke:#E7E7E7;stroke-width:0.5;"/><text fill="#FFFFFF" font-family="sans-serif" font-size="11" lengthAdjust="spacing" textLength="20" x="3862" y="138.9839">yes</text><text fill="#FFFFFF" font-family="sans-serif" font-size="11" lengthAdjust="spacing" textLength="105" x="3805.5" y="120.5815">&#26085;&#26412;&#12391;&#20316;&#12425;&#12428;&#12383;&#28450;&#23383;?</text><text fill="#FFFFFF" font-family="sans-serif" font-size="11" lengthAdjust="spacing" textLength="14" x="3922.5" y="114.1792">no</text><polygon fill="#313139" points="3778,161.5781,3938,161.5781,3950,173.5781,3938,185.5781,3778,185.5781,3766,173.5781,3778,161.5781" style="stroke:#E7E7E7;stroke-width:0.5;"/><text fill="#FFFFFF" font-family="sans-serif" font-size="11" lengthAdjust="spacing" textLength="160" x="3778" y="177.3862">&#24418;&#22768;&#25991;&#23383;&#12420;&#20250;&#24847;&#25991;&#23383;&#12392;&#12415;&#12394;&#12379;&#12427;?</text><text fill="#FFFFFF" font-family="sans-serif" font-size="11" lengthAdjust="spacing" textLength="20" x="3746" y="170.9839">yes</text><text fill="#FFFFFF" font-family="sans-serif" font-size="11" lengthAdjust="spacing" textLength="14" x="3950" y="170.9839">no</text><rect fill="#313139" height="33.9688" rx="12.5" ry="12.5" style="stroke:#E7E7E7;stroke-width:0.5;" width="307" x="3526" y="195.5781"/><text fill="#FFFFFF" font-family="sans-serif" font-size="12" lengthAdjust="spacing" textLength="287" x="3536" y="216.7168">&#9321;&#24418;&#22768;&#25991;&#23383;&#12420;&#20250;&#24847;&#25991;&#23383;&#12392;&#12415;&#12394;&#12379;&#12427;&#37096;&#20998;&#12398;&#35501;&#12415;&#26041;&#12434;&#25505;&#29992;</text><rect fill="#313139" height="75.875" rx="12.5" ry="12.5" style="stroke:#E7E7E7;stroke-width:0.5;" width="216" x="3571.5" y="264.5469"/><text fill="#FFFFFF" font-family="sans-serif" font-size="12" lengthAdjust="spacing" textLength="192" x="3581.5" y="285.6855">&#20363;: &#12300;&#30033;&#12301;&#12399;ti&#225;n&#65288;&#30000;&#65289;&#12398;&#38899;&#12434;&#21462;&#12427;,</text><text fill="#FFFFFF" font-family="sans-serif" font-size="12" lengthAdjust="spacing" textLength="166" x="3581.5" y="299.6543">&#12300;&#36795;&#12301;&#12399;sh&#237;&#65288;&#21313;&#65289;&#12398;&#38899;&#12434;&#21462;&#12427;,</text><text fill="#FFFFFF" font-family="sans-serif" font-size="12" lengthAdjust="spacing" textLength="161" x="3581.5" y="313.623">&#12300;&#36796;&#12301;&#12399;r&#249;&#65288;&#20837;&#65289;&#12398;&#38899;&#12434;&#21462;&#12427;,</text><text fill="#FFFFFF" font-family="sans-serif" font-size="12" lengthAdjust="spacing" textLength="168" x="3581.5" y="327.5918">&#12300;&#40235;&#12301;&#12399;ti&#225;n&#65288;&#30000;&#65289;&#12398;&#38899;&#12434;&#21462;&#12427;</text><rect fill="#313139" height="33.9688" rx="12.5" ry="12.5" style="stroke:#E7E7E7;stroke-width:0.5;" width="260" x="3906.5" y="195.5781"/><text fill="#FFFFFF" font-family="sans-serif" font-size="12" lengthAdjust="spacing" textLength="240" x="3916.5" y="216.7168">&#9322;&#23383;&#24418;&#12364;&#39006;&#20284;&#12377;&#12427;&#25991;&#23383;&#12420;&#37096;&#39318;&#12398;&#35501;&#12415;&#26041;&#12434;&#25505;&#29992;</text><rect fill="#313139" height="47.9375" rx="12.5" ry="12.5" style="stroke:#E7E7E7;stroke-width:0.5;" width="367" x="3853" y="264.5469"/><text fill="#FFFFFF" font-family="sans-serif" font-size="12" lengthAdjust="spacing" textLength="279" x="3863" y="285.6855">&#20363;:&#12300;&#40639;&#12301;&#12399;&#23383;&#24418;&#12364;&#39006;&#20284;&#12377;&#12427;&#12300;&#30952;&#12301;&#12398;&#35501;&#12415;m&#243;&#12434;&#21462;&#12427;,</text><text fill="#FFFFFF" font-family="sans-serif" font-size="12" lengthAdjust="spacing" textLength="347" x="3863" y="299.6543">&#12288;&#12288;&#12300;&#23776;&#12301;&#12398;&#21491;&#20596;&#12398;&#37096;&#20998;&#12399;&#12300;&#21345;&#12301;&#12395;&#39006;&#20284;&#12377;&#12427;&#12383;&#12417;, k&#462;&#12398;&#38899;&#12434;&#21462;&#12427;</text><polygon fill="#313139" points="3858,346.4219,3870,358.4219,3858,370.4219,3846,358.4219,3858,346.4219" style="stroke:#E7E7E7;stroke-width:0.5;"/><rect fill="#313139" height="33.9688" rx="12.5" ry="12.5" style="stroke:#E7E7E7;stroke-width:0.5;" width="116" x="4240.5" y="263.6445"/><text fill="#FFFFFF" font-family="sans-serif" font-size="12" lengthAdjust="spacing" textLength="96" x="4250.5" y="284.7832">&#9323;&#20170;&#22238;&#12399;&#38500;&#22806;&#12377;&#12427;</text><polygon fill="#313139" points="4242,215.2422,4355,215.2422,4367,227.2422,4355,239.2422,4242,239.2422,4230,227.2422,4242,215.2422" style="stroke:#E7E7E7;stroke-width:0.5;"/><text fill="#FFFFFF" font-family="sans-serif" font-size="11" lengthAdjust="spacing" textLength="20" x="4302.5" y="249.4526">yes</text><text fill="#FFFFFF" font-family="sans-serif" font-size="11" lengthAdjust="spacing" textLength="113" x="4242" y="231.0503">&#26397;&#39854;&#28450;&#23383;/&#21476;&#22766;&#23383;/&#23383;&#21891;?</text><polygon fill="#313139" points="4298.5,322.0156,4310.5,334.0156,4298.5,346.0156,4286.5,334.0156,4298.5,322.0156" style="stroke:#E7E7E7;stroke-width:0.5;"/><ellipse cx="2205" cy="464.6914" fill="none" rx="11" ry="11" style="stroke:#DDDDDD;stroke-width:1.0;"/><ellipse cx="2205" cy="464.6914" fill="#DDDDDD" rx="6" ry="6" style="stroke:#DDDDDD;stroke-width:1.0;"/><line style="stroke:#E7E7E7;stroke-width:1.0;" x1="2205" x2="2205" y1="30" y2="50"/><polygon fill="#E7E7E7" points="2201,40,2205,50,2209,40,2205,44" style="stroke:#E7E7E7;stroke-width:1.0;"/><line style="stroke:#E7E7E7;stroke-width:1.0;" x1="155.5" x2="155.5" y1="230.3516" y2="265.3516"/><polygon fill="#E7E7E7" points="151.5,255.3516,155.5,265.3516,159.5,255.3516,155.5,259.3516" style="stroke:#E7E7E7;stroke-width:1.0;"/><line style="stroke:#E7E7E7;stroke-width:1.0;" x1="480.5" x2="480.5" y1="230.3516" y2="265.3516"/><polygon fill="#E7E7E7" points="476.5,255.3516,480.5,265.3516,484.5,255.3516,480.5,259.3516" style="stroke:#E7E7E7;stroke-width:1.0;"/><line style="stroke:#E7E7E7;stroke-width:1.0;" x1="237" x2="155.5" y1="174.3828" y2="174.3828"/><line style="stroke:#E7E7E7;stroke-width:1.0;" x1="155.5" x2="155.5" y1="174.3828" y2="196.3828"/><polygon fill="#E7E7E7" points="151.5,186.3828,155.5,196.3828,159.5,186.3828,155.5,190.3828" style="stroke:#E7E7E7;stroke-width:1.0;"/><line style="stroke:#E7E7E7;stroke-width:1.0;" x1="399" x2="480.5" y1="174.3828" y2="174.3828"/><line style="stroke:#E7E7E7;stroke-width:1.0;" x1="480.5" x2="480.5" y1="174.3828" y2="196.3828"/><polygon fill="#E7E7E7" points="476.5,186.3828,480.5,196.3828,484.5,186.3828,480.5,190.3828" style="stroke:#E7E7E7;stroke-width:1.0;"/><line style="stroke:#E7E7E7;stroke-width:1.0;" x1="155.5" x2="155.5" y1="313.2891" y2="331.2891"/><line style="stroke:#E7E7E7;stroke-width:1.0;" x1="155.5" x2="306" y1="331.2891" y2="331.2891"/><polygon fill="#E7E7E7" points="296,327.2891,306,331.2891,296,335.2891,300,331.2891" style="stroke:#E7E7E7;stroke-width:1.0;"/><line style="stroke:#E7E7E7;stroke-width:1.0;" x1="480.5" x2="480.5" y1="299.3203" y2="331.2891"/><line style="stroke:#E7E7E7;stroke-width:1.0;" x1="480.5" x2="330" y1="331.2891" y2="331.2891"/><polygon fill="#E7E7E7" points="340,327.2891,330,331.2891,340,335.2891,336,331.2891" style="stroke:#E7E7E7;stroke-width:1.0;"/><line style="stroke:#E7E7E7;stroke-width:1.0;" x1="856" x2="856" y1="230.3516" y2="265.3516"/><polygon fill="#E7E7E7" points="852,255.3516,856,265.3516,860,255.3516,856,259.3516" style="stroke:#E7E7E7;stroke-width:1.0;"/><line style="stroke:#E7E7E7;stroke-width:1.0;" x1="1258.5" x2="1258.5" y1="230.3516" y2="265.3516"/><polygon fill="#E7E7E7" points="1254.5,255.3516,1258.5,265.3516,1262.5,255.3516,1258.5,259.3516" style="stroke:#E7E7E7;stroke-width:1.0;"/><line style="stroke:#E7E7E7;stroke-width:1.0;" x1="976.25" x2="856" y1="174.3828" y2="174.3828"/><line style="stroke:#E7E7E7;stroke-width:1.0;" x1="856" x2="856" y1="174.3828" y2="196.3828"/><polygon fill="#E7E7E7" points="852,186.3828,856,196.3828,860,186.3828,856,190.3828" style="stroke:#E7E7E7;stroke-width:1.0;"/><line style="stroke:#E7E7E7;stroke-width:1.0;" x1="1138.25" x2="1258.5" y1="174.3828" y2="174.3828"/><line style="stroke:#E7E7E7;stroke-width:1.0;" x1="1258.5" x2="1258.5" y1="174.3828" y2="196.3828"/><polygon fill="#E7E7E7" points="1254.5,186.3828,1258.5,196.3828,1262.5,186.3828,1258.5,190.3828" style="stroke:#E7E7E7;stroke-width:1.0;"/><line style="stroke:#E7E7E7;stroke-width:1.0;" x1="856" x2="856" y1="313.2891" y2="331.2891"/><line style="stroke:#E7E7E7;stroke-width:1.0;" x1="856" x2="1045.25" y1="331.2891" y2="331.2891"/><polygon fill="#E7E7E7" points="1035.25,327.2891,1045.25,331.2891,1035.25,335.2891,1039.25,331.2891" style="stroke:#E7E7E7;stroke-width:1.0;"/><line style="stroke:#E7E7E7;stroke-width:1.0;" x1="1258.5" x2="1258.5" y1="299.3203" y2="331.2891"/><line style="stroke:#E7E7E7;stroke-width:1.0;" x1="1258.5" x2="1069.25" y1="331.2891" y2="331.2891"/><polygon fill="#E7E7E7" points="1079.25,327.2891,1069.25,331.2891,1079.25,335.2891,1075.25,331.2891" style="stroke:#E7E7E7;stroke-width:1.0;"/><line style="stroke:#E7E7E7;stroke-width:1.0;" x1="1576" x2="1576" y1="236.7539" y2="271.7539"/><polygon fill="#E7E7E7" points="1572,261.7539,1576,271.7539,1580,261.7539,1576,265.7539" style="stroke:#E7E7E7;stroke-width:1.0;"/><line style="stroke:#E7E7E7;stroke-width:1.0;" x1="1889.5" x2="1889.5" y1="270.7539" y2="305.7539"/><polygon fill="#E7E7E7" points="1885.5,295.7539,1889.5,305.7539,1893.5,295.7539,1889.5,299.7539" style="stroke:#E7E7E7;stroke-width:1.0;"/><line style="stroke:#E7E7E7;stroke-width:1.0;" x1="1949" x2="1889.5" y1="214.7852" y2="214.7852"/><line style="stroke:#E7E7E7;stroke-width:1.0;" x1="1889.5" x2="1889.5" y1="214.7852" y2="236.7852"/><polygon fill="#E7E7E7" points="1885.5,226.7852,1889.5,236.7852,1893.5,226.7852,1889.5,230.7852" style="stroke:#E7E7E7;stroke-width:1.0;"/><line style="stroke:#E7E7E7;stroke-width:1.0;" x1="2133" x2="2192.5" y1="214.7852" y2="214.7852"/><line style="stroke:#E7E7E7;stroke-width:1.0;" x1="2192.5" x2="2192.5" y1="214.7852" y2="236.7852"/><polygon fill="#E7E7E7" points="2188.5,226.7852,2192.5,236.7852,2196.5,226.7852,2192.5,230.7852" style="stroke:#E7E7E7;stroke-width:1.0;"/><line style="stroke:#E7E7E7;stroke-width:1.0;" x1="1889.5" x2="1889.5" y1="353.6914" y2="371.6914"/><line style="stroke:#E7E7E7;stroke-width:1.0;" x1="1889.5" x2="2029" y1="371.6914" y2="371.6914"/><polygon fill="#E7E7E7" points="2019,367.6914,2029,371.6914,2019,375.6914,2023,371.6914" style="stroke:#E7E7E7;stroke-width:1.0;"/><line style="stroke:#E7E7E7;stroke-width:1.0;" x1="2192.5" x2="2192.5" y1="270.7539" y2="371.6914"/><line style="stroke:#E7E7E7;stroke-width:1.0;" x1="2192.5" x2="2053" y1="371.6914" y2="371.6914"/><polygon fill="#E7E7E7" points="2063,367.6914,2053,371.6914,2063,375.6914,2059,371.6914" style="stroke:#E7E7E7;stroke-width:1.0;"/><line style="stroke:#E7E7E7;stroke-width:1.0;" x1="1749.5" x2="1576" y1="180.7852" y2="180.7852"/><line style="stroke:#E7E7E7;stroke-width:1.0;" x1="1576" x2="1576" y1="180.7852" y2="202.7852"/><polygon fill="#E7E7E7" points="1572,192.7852,1576,202.7852,1580,192.7852,1576,196.7852" style="stroke:#E7E7E7;stroke-width:1.0;"/><line style="stroke:#E7E7E7;stroke-width:1.0;" x1="1867.5" x2="2041" y1="180.7852" y2="180.7852"/><line style="stroke:#E7E7E7;stroke-width:1.0;" x1="2041" x2="2041" y1="180.7852" y2="202.7852"/><polygon fill="#E7E7E7" points="2037,192.7852,2041,202.7852,2045,192.7852,2041,196.7852" style="stroke:#E7E7E7;stroke-width:1.0;"/><line style="stroke:#E7E7E7;stroke-width:1.0;" x1="1576" x2="1576" y1="305.7227" y2="401.6914"/><line style="stroke:#E7E7E7;stroke-width:1.0;" x1="1576" x2="1796.5" y1="401.6914" y2="401.6914"/><polygon fill="#E7E7E7" points="1786.5,397.6914,1796.5,401.6914,1786.5,405.6914,1790.5,401.6914" style="stroke:#E7E7E7;stroke-width:1.0;"/><line style="stroke:#E7E7E7;stroke-width:1.0;" x1="2041" x2="2041" y1="383.6914" y2="401.6914"/><line style="stroke:#E7E7E7;stroke-width:1.0;" x1="2041" x2="1820.5" y1="401.6914" y2="401.6914"/><polygon fill="#E7E7E7" points="1830.5,397.6914,1820.5,401.6914,1830.5,405.6914,1826.5,401.6914" style="stroke:#E7E7E7;stroke-width:1.0;"/><line style="stroke:#E7E7E7;stroke-width:1.0;" x1="2604" x2="2604" y1="229.5469" y2="264.5469"/><polygon fill="#E7E7E7" points="2600,254.5469,2604,264.5469,2608,254.5469,2604,258.5469" style="stroke:#E7E7E7;stroke-width:1.0;"/><line style="stroke:#E7E7E7;stroke-width:1.0;" x1="3206" x2="3206" y1="229.5469" y2="264.5469"/><polygon fill="#E7E7E7" points="3202,254.5469,3206,264.5469,3210,254.5469,3206,258.5469" style="stroke:#E7E7E7;stroke-width:1.0;"/><line style="stroke:#E7E7E7;stroke-width:1.0;" x1="2758" x2="2604" y1="173.5781" y2="173.5781"/><line style="stroke:#E7E7E7;stroke-width:1.0;" x1="2604" x2="2604" y1="173.5781" y2="195.5781"/><polygon fill="#E7E7E7" points="2600,185.5781,2604,195.5781,2608,185.5781,2604,189.5781" style="stroke:#E7E7E7;stroke-width:1.0;"/><line style="stroke:#E7E7E7;stroke-width:1.0;" x1="3052" x2="3206" y1="173.5781" y2="173.5781"/><line style="stroke:#E7E7E7;stroke-width:1.0;" x1="3206" x2="3206" y1="173.5781" y2="195.5781"/><polygon fill="#E7E7E7" points="3202,185.5781,3206,195.5781,3210,185.5781,3206,189.5781" style="stroke:#E7E7E7;stroke-width:1.0;"/><line style="stroke:#E7E7E7;stroke-width:1.0;" x1="2604" x2="2604" y1="312.4844" y2="330.4844"/><line style="stroke:#E7E7E7;stroke-width:1.0;" x1="2604" x2="2893" y1="330.4844" y2="330.4844"/><polygon fill="#E7E7E7" points="2883,326.4844,2893,330.4844,2883,334.4844,2887,330.4844" style="stroke:#E7E7E7;stroke-width:1.0;"/><line style="stroke:#E7E7E7;stroke-width:1.0;" x1="3206" x2="3206" y1="312.4844" y2="330.4844"/><line style="stroke:#E7E7E7;stroke-width:1.0;" x1="3206" x2="2917" y1="330.4844" y2="330.4844"/><polygon fill="#E7E7E7" points="2927,326.4844,2917,330.4844,2927,334.4844,2923,330.4844" style="stroke:#E7E7E7;stroke-width:1.0;"/><line style="stroke:#E7E7E7;stroke-width:1.0;" x1="3679.5" x2="3679.5" y1="229.5469" y2="264.5469"/><polygon fill="#E7E7E7" points="3675.5,254.5469,3679.5,264.5469,3683.5,254.5469,3679.5,258.5469" style="stroke:#E7E7E7;stroke-width:1.0;"/><line style="stroke:#E7E7E7;stroke-width:1.0;" x1="4036.5" x2="4036.5" y1="229.5469" y2="264.5469"/><polygon fill="#E7E7E7" points="4032.5,254.5469,4036.5,264.5469,4040.5,254.5469,4036.5,258.5469" style="stroke:#E7E7E7;stroke-width:1.0;"/><line style="stroke:#E7E7E7;stroke-width:1.0;" x1="3766" x2="3679.5" y1="173.5781" y2="173.5781"/><line style="stroke:#E7E7E7;stroke-width:1.0;" x1="3679.5" x2="3679.5" y1="173.5781" y2="195.5781"/><polygon fill="#E7E7E7" points="3675.5,185.5781,3679.5,195.5781,3683.5,185.5781,3679.5,189.5781" style="stroke:#E7E7E7;stroke-width:1.0;"/><line style="stroke:#E7E7E7;stroke-width:1.0;" x1="3950" x2="4036.5" y1="173.5781" y2="173.5781"/><line style="stroke:#E7E7E7;stroke-width:1.0;" x1="4036.5" x2="4036.5" y1="173.5781" y2="195.5781"/><polygon fill="#E7E7E7" points="4032.5,185.5781,4036.5,195.5781,4040.5,185.5781,4036.5,189.5781" style="stroke:#E7E7E7;stroke-width:1.0;"/><line style="stroke:#E7E7E7;stroke-width:1.0;" x1="3679.5" x2="3679.5" y1="340.4219" y2="358.4219"/><line style="stroke:#E7E7E7;stroke-width:1.0;" x1="3679.5" x2="3846" y1="358.4219" y2="358.4219"/><polygon fill="#E7E7E7" points="3836,354.4219,3846,358.4219,3836,362.4219,3840,358.4219" style="stroke:#E7E7E7;stroke-width:1.0;"/><line style="stroke:#E7E7E7;stroke-width:1.0;" x1="4036.5" x2="4036.5" y1="312.4844" y2="358.4219"/><line style="stroke:#E7E7E7;stroke-width:1.0;" x1="4036.5" x2="3870" y1="358.4219" y2="358.4219"/><polygon fill="#E7E7E7" points="3880,354.4219,3870,358.4219,3880,362.4219,3876,358.4219" style="stroke:#E7E7E7;stroke-width:1.0;"/><line style="stroke:#E7E7E7;stroke-width:1.0;" x1="4298.5" x2="4298.5" y1="239.2422" y2="263.6445"/><polygon fill="#E7E7E7" points="4294.5,253.6445,4298.5,263.6445,4302.5,253.6445,4298.5,257.6445" style="stroke:#E7E7E7;stroke-width:1.0;"/><line style="stroke:#E7E7E7;stroke-width:1.0;" x1="4367" x2="4379" y1="227.2422" y2="227.2422"/><polygon fill="#E7E7E7" points="4375,270.6289,4379,280.6289,4383,270.6289,4379,274.6289" style="stroke:#E7E7E7;stroke-width:1.0;"/><line style="stroke:#E7E7E7;stroke-width:1.0;" x1="4379" x2="4379" y1="227.2422" y2="334.0156"/><line style="stroke:#E7E7E7;stroke-width:1.0;" x1="4379" x2="4310.5" y1="334.0156" y2="334.0156"/><polygon fill="#E7E7E7" points="4320.5,330.0156,4310.5,334.0156,4320.5,338.0156,4316.5,334.0156" style="stroke:#E7E7E7;stroke-width:1.0;"/><line style="stroke:#E7E7E7;stroke-width:1.0;" x1="4298.5" x2="4298.5" y1="297.6133" y2="322.0156"/><polygon fill="#E7E7E7" points="4294.5,312.0156,4298.5,322.0156,4302.5,312.0156,4298.5,316.0156" style="stroke:#E7E7E7;stroke-width:1.0;"/><line style="stroke:#E7E7E7;stroke-width:1.0;" x1="318" x2="318" y1="129.5781" y2="162.3828"/><polygon fill="#E7E7E7" points="314,152.3828,318,162.3828,322,152.3828,318,156.3828" style="stroke:#E7E7E7;stroke-width:1.0;"/><line style="stroke:#E7E7E7;stroke-width:1.0;" x1="318" x2="318" y1="343.2891" y2="433.6914"/><polygon fill="#E7E7E7" points="314,423.6914,318,433.6914,322,423.6914,318,427.6914" style="stroke:#E7E7E7;stroke-width:1.0;"/><line style="stroke:#E7E7E7;stroke-width:1.0;" x1="1057.25" x2="1057.25" y1="129.5781" y2="162.3828"/><polygon fill="#E7E7E7" points="1053.25,152.3828,1057.25,162.3828,1061.25,152.3828,1057.25,156.3828" style="stroke:#E7E7E7;stroke-width:1.0;"/><line style="stroke:#E7E7E7;stroke-width:1.0;" x1="1057.25" x2="1057.25" y1="343.2891" y2="433.6914"/><polygon fill="#E7E7E7" points="1053.25,423.6914,1057.25,433.6914,1061.25,423.6914,1057.25,427.6914" style="stroke:#E7E7E7;stroke-width:1.0;"/><line style="stroke:#E7E7E7;stroke-width:1.0;" x1="1808.5" x2="1808.5" y1="135.9805" y2="168.7852"/><polygon fill="#E7E7E7" points="1804.5,158.7852,1808.5,168.7852,1812.5,158.7852,1808.5,162.7852" style="stroke:#E7E7E7;stroke-width:1.0;"/><line style="stroke:#E7E7E7;stroke-width:1.0;" x1="1808.5" x2="1808.5" y1="413.6914" y2="433.6914"/><polygon fill="#E7E7E7" points="1804.5,423.6914,1808.5,433.6914,1812.5,423.6914,1808.5,427.6914" style="stroke:#E7E7E7;stroke-width:1.0;"/><line style="stroke:#E7E7E7;stroke-width:1.0;" x1="2905" x2="2905" y1="128.7734" y2="161.5781"/><polygon fill="#E7E7E7" points="2901,151.5781,2905,161.5781,2909,151.5781,2905,155.5781" style="stroke:#E7E7E7;stroke-width:1.0;"/><line style="stroke:#E7E7E7;stroke-width:1.0;" x1="2905" x2="2905" y1="342.4844" y2="433.6914"/><polygon fill="#E7E7E7" points="2901,423.6914,2905,433.6914,2909,423.6914,2905,427.6914" style="stroke:#E7E7E7;stroke-width:1.0;"/><line style="stroke:#E7E7E7;stroke-width:1.0;" x1="3858" x2="3858" y1="128.7734" y2="161.5781"/><polygon fill="#E7E7E7" points="3854,151.5781,3858,161.5781,3862,151.5781,3858,155.5781" style="stroke:#E7E7E7;stroke-width:1.0;"/><line style="stroke:#E7E7E7;stroke-width:1.0;" x1="3858" x2="3858" y1="370.4219" y2="433.6914"/><polygon fill="#E7E7E7" points="3854,423.6914,3858,433.6914,3862,423.6914,3858,427.6914" style="stroke:#E7E7E7;stroke-width:1.0;"/><line style="stroke:#E7E7E7;stroke-width:1.0;" x1="410" x2="954.25" y1="116.7734" y2="116.7734"/><polygon fill="#E7E7E7" points="944.25,112.7734,954.25,116.7734,944.25,120.7734,948.25,116.7734" style="stroke:#E7E7E7;stroke-width:1.0;"/><line style="stroke:#E7E7E7;stroke-width:1.0;" x1="1160.25" x2="1627.5" y1="116.7734" y2="116.7734"/><polygon fill="#E7E7E7" points="1617.5,112.7734,1627.5,116.7734,1617.5,120.7734,1621.5,116.7734" style="stroke:#E7E7E7;stroke-width:1.0;"/><line style="stroke:#E7E7E7;stroke-width:1.0;" x1="1989.5" x2="2849.5" y1="116.7734" y2="116.7734"/><polygon fill="#E7E7E7" points="2839.5,112.7734,2849.5,116.7734,2839.5,120.7734,2843.5,116.7734" style="stroke:#E7E7E7;stroke-width:1.0;"/><line style="stroke:#E7E7E7;stroke-width:1.0;" x1="2960.5" x2="3793.5" y1="116.7734" y2="116.7734"/><polygon fill="#E7E7E7" points="3783.5,112.7734,3793.5,116.7734,3783.5,120.7734,3787.5,116.7734" style="stroke:#E7E7E7;stroke-width:1.0;"/><line style="stroke:#E7E7E7;stroke-width:1.0;" x1="2205" x2="2205" y1="83.9688" y2="88.9688"/><line style="stroke:#E7E7E7;stroke-width:1.0;" x1="2205" x2="318" y1="88.9688" y2="88.9688"/><line style="stroke:#E7E7E7;stroke-width:1.0;" x1="318" x2="318" y1="88.9688" y2="103.9688"/><polygon fill="#E7E7E7" points="314,93.9688,318,103.9688,322,93.9688,318,97.9688" style="stroke:#E7E7E7;stroke-width:1.0;"/><line style="stroke:#E7E7E7;stroke-width:1.0;" x1="3922.5" x2="4298.5" y1="116.7734" y2="116.7734"/><line style="stroke:#E7E7E7;stroke-width:1.0;" x1="4298.5" x2="4298.5" y1="116.7734" y2="215.2422"/><polygon fill="#E7E7E7" points="4294.5,205.2422,4298.5,215.2422,4302.5,205.2422,4298.5,209.2422" style="stroke:#E7E7E7;stroke-width:1.0;"/><line style="stroke:#E7E7E7;stroke-width:1.0;" x1="4298.5" x2="4298.5" y1="346.0156" y2="433.6914"/><polygon fill="#E7E7E7" points="4294.5,423.6914,4298.5,433.6914,4302.5,423.6914,4298.5,427.6914" style="stroke:#E7E7E7;stroke-width:1.0;"/><line style="stroke:#E7E7E7;stroke-width:1.0;" x1="318" x2="4298.5" y1="433.6914" y2="433.6914"/><line style="stroke:#E7E7E7;stroke-width:1.0;" x1="2205" x2="2205" y1="433.6914" y2="453.6914"/><polygon fill="#E7E7E7" points="2201,443.6914,2205,453.6914,2209,443.6914,2205,447.6914" style="stroke:#E7E7E7;stroke-width:1.0;"/><!--SRC=[jLTDKo976BxpApXg5LNUsSCUjygjt7FmaafKh2HZIjY3dkWHNLX0CGBAYWl8rwopW0IsLf6F0wRy7scwnpdv5_9szp20p22fk1GrDVIyNy_xFFrEu_NzjELpk6dxWbHECAgIuBwU-_JAiR7cN1XSLyXPXoqU5jXJEJ3edN0pXGGBD5d1g8nH5ClXrolImfktFxf9wvksdm8JidUjLKABYqwVPrLoBcolUXSTJlXCX3MJFbn2g1vDtc0KmKXc0QSysSVzpr5sfhTAkiSOxRyQUGowORSJ-oE3NXxxenZLde92PPTp-puEc5WSsUzohaXWJsFT9_P6FdXKKlYZgfQu6dIEXq5sFFsi6KLKiFgRTzMv86rE8CYHpWN9Nz7aUwEdxOyqS6ZyH0f0mUWIepFeWhuBZTwVW2Z_IGzoMbonWAZLZP8d4h28S2tHK1sZWCkvrLUantQG17SVso48hMSQ49GS9Y6VKRNqoyQQWzNEsA8dHMW188GYoL43mkie0Jq6gXZFdGjs4mFQJaM3c1I63weq6CFo1qqDOvGpxR0imoEuafWAhPfJ9Ef_4Cc5I6IMOQSP08xHEIi6TU5hsraIaUt4G29-8GQG4_Htc58ne38cgq9Z_PRqfDsk5Ob5f-Ntjb8hfqHqUbA65L2RLUWTpzsnP4sbbG3ptqk0z3nl8y1Hn67DNiyTuZgir-VM8Kr_6TzrJ6dBRzs3sm_qD2wIwOSvr_8FosxnY-xkaMoTP5hQMO4ccaHE3LfXMgmihKWGH5VZZ2q-gvPeFSGSldu3eOrjQ-M1rPQ7xGFSykeZWYI2caoIdnjQymeMjK2EaPzjabZGMiyF9N3EQ6TL5gBTDYFQQhXWxYwOnzmZ1UP3qYn9U6n_11PqbMa6MillJv-CAjxisleTsdnsLh6ovvUADH03JF659JU9c1Pw1c84Un3uY0gKFtl-LYKJveGpzllvDqAonqApxFwlQtuFykndhJUKTQSCbAMPb0K0cLvAFeDCY7wc_8iGRacyYLzRQcraUvKRAhcgtI1JrUQWiJ4m1hMjDikarYMzjC1d6SoSh_OpjRKhI8DgELqAMxmnc8IWOYoCLSKfkXKZfZmr18KtkAw_kp-GrfatLxvPYQ3HCQK0cajF5qAL-kn2g7fhNmXuW-lsdMfVnupvh8ntTyJbAFyStQLXuuqrz2-pnL22Bwh059DH1CIOm79aVB3n8rtjgG535nW7Q4IgYLG0TgtVch_b-dvekZfzB_v2rGqZrKGgg6xdNV_BCqnOxhRoe9F6SeWdoHZd6yijzt_d9D3- -RkT2nD7eXs-ZNwElNEr-DNqEzSuzpvqXQvhNa-_mjxFKJJ3jYrij_etp7IlQ6kgDzKvQfYnAIvVOBRoZh1YMZtZd68LatKihunBvVV-69vfDPD6TdW4RF1pGNN83vzOqPoGzKGEbC4oSZb_lJzuvkWpQWJNPVfShnh7moNs1oPVvNU08xbhgomLZaZax1CxkgSAf90KDKnaubUlR_EFVm40]--></g></svg>